# File produced by Open Asset Import Library (http://www.assimp.sf.net)
# (assimp v3.0.1262)

mtllib bear.dae.obj.mtl

# 1556 vertex positions
v  118.758 121.247 39.8519
v  99.9656 112.96 39.8519
v  118.758 112.96 39.8519
v  99.9656 112.96 39.8519
v  118.758 121.247 39.8519
v  99.9656 121.247 39.8519
v  99.9656 121.247 39.8519
v  118.758 121.247 39.8519
v  99.9656 112.96 39.8519
v  118.758 112.96 39.8519
v  99.9656 112.96 39.8519
v  118.758 121.247 39.8519
v  118.758 112.96 39.8519
v  99.9656 112.96 39.8519
v  118.758 121.247 39.8519
v  118.758 112.96 39.8519
v  99.9656 121.247 39.8519
v  118.758 121.247 39.8519
v  99.9656 112.96 39.8519
v  99.9656 121.247 39.8519
v  59.528 183.097 -93.8095
v  59.528 84.6717 8.04095
v  59.528 183.097 8.04095
v  59.528 84.6717 8.04095
v  59.528 183.097 -93.8095
v  59.528 84.6717 -93.8095
v  59.528 84.6717 -93.8095
v  59.528 183.097 -93.8095
v  59.528 84.6717 8.04095
v  59.528 183.097 8.04095
v  59.528 84.6717 8.04095
v  59.528 183.097 -93.8095
v  157.953 183.097 8.04095
v  59.528 84.6717 8.04095
v  157.953 84.6717 8.04095
v  59.528 84.6717 8.04095
v  157.953 183.097 8.04095
v  59.528 183.097 8.04095
v  59.528 183.097 8.04095
v  157.953 183.097 8.04095
v  59.528 84.6717 8.04095
v  157.953 84.6717 8.04095
v  59.528 84.6717 8.04095
v  157.953 183.097 8.04095
v  157.953 183.097 8.04095
v  59.528 183.097 -93.8095
v  59.528 183.097 8.04095
v  59.528 183.097 -93.8095
v  157.953 183.097 8.04095
v  157.953 183.097 -93.8095
v  157.953 183.097 -93.8095
v  157.953 183.097 8.04095
v  59.528 183.097 -93.8095
v  59.528 183.097 8.04095
v  59.528 183.097 -93.8095
v  157.953 183.097 8.04095
v  59.528 183.097 -93.8095
v  157.953 84.6717 -93.8095
v  59.528 84.6717 -93.8095
v  157.953 84.6717 -93.8095
v  59.528 183.097 -93.8095
v  157.953 183.097 -93.8095
v  157.953 183.097 -93.8095
v  59.528 183.097 -93.8095
v  157.953 84.6717 -93.8095
v  59.528 84.6717 -93.8095
v  157.953 84.6717 -93.8095
v  59.528 183.097 -93.8095
v  157.953 84.6717 -93.8095
v  59.528 84.6717 8.04095
v  59.528 84.6717 -93.8095
v  59.528 84.6717 8.04095
v  157.953 84.6717 -93.8095
v  157.953 84.6717 8.04095
v  157.953 84.6717 8.04095
v  157.953 84.6717 -93.8095
v  59.528 84.6717 8.04095
v  59.528 84.6717 -93.8095
v  59.528 84.6717 8.04095
v  157.953 84.6717 -93.8095
v  157.953 84.6717 -93.8095
v  157.953 183.097 8.04095
v  157.953 84.6717 8.04095
v  157.953 183.097 8.04095
v  157.953 84.6717 -93.8095
v  157.953 183.097 -93.8095
v  157.953 183.097 -93.8095
v  157.953 84.6717 -93.8095
v  157.953 183.097 8.04095
v  157.953 84.6717 8.04095
v  157.953 183.097 8.04095
v  157.953 84.6717 -93.8095
v  59.528 183.097 8.04095
v  59.528 84.6717 8.04095
v  59.528 183.097 8.04095
v  59.528 183.097 -93.8095
v  59.528 183.097 -93.8095
v  59.528 84.6717 -93.8095
v  59.528 84.6717 8.04095
v  59.528 84.6717 -93.8095
v  59.528 84.6717 8.04095
v  157.953 84.6717 8.04095
v  157.953 84.6717 8.04095
v  157.953 183.097 8.04095
v  157.953 183.097 8.04095
v  59.528 183.097 8.04095
v  157.953 183.097 8.04095
v  157.953 183.097 -93.8095
v  157.953 183.097 -93.8095
v  59.528 183.097 -93.8095
v  157.953 84.6717 -93.8095
v  157.953 183.097 -93.8095
v  59.528 84.6717 -93.8095
v  157.953 84.6717 -93.8095
v  157.953 84.6717 8.04095
v  157.953 84.6717 -93.8095
v  148.024 172.766 28.9624
v  71.853 172.766 -18.4786
v  71.853 172.766 28.9624
v  71.853 172.766 -18.4786
v  148.024 172.766 28.9624
v  148.024 172.766 -18.4786
v  148.024 172.766 -18.4786
v  148.024 172.766 28.9624
v  71.853 172.766 -18.4786
v  71.853 172.766 28.9624
v  71.853 172.766 -18.4786
v  148.024 172.766 28.9624
v  148.024 172.766 28.9624
v  71.853 90.0047 28.9624
v  148.024 90.0047 28.9624
v  71.853 90.0047 28.9624
v  148.024 172.766 28.9624
v  71.853 172.766 28.9624
v  71.853 172.766 28.9624
v  148.024 172.766 28.9624
v  71.853 90.0047 28.9624
v  148.024 90.0047 28.9624
v  71.853 90.0047 28.9624
v  148.024 172.766 28.9624
v  148.024 90.0047 -18.4786
v  148.024 172.766 28.9624
v  148.024 90.0047 28.9624
v  148.024 172.766 28.9624
v  148.024 90.0047 -18.4786
v  148.024 172.766 -18.4786
v  148.024 172.766 -18.4786
v  148.024 90.0047 -18.4786
v  148.024 172.766 28.9624
v  148.024 90.0047 28.9624
v  148.024 172.766 28.9624
v  148.024 90.0047 -18.4786
v  71.853 172.766 -18.4786
v  148.024 90.0047 -18.4786
v  71.853 90.0047 -18.4786
v  148.024 90.0047 -18.4786
v  71.853 172.766 -18.4786
v  148.024 172.766 -18.4786
v  148.024 172.766 -18.4786
v  71.853 172.766 -18.4786
v  148.024 90.0047 -18.4786
v  71.853 90.0047 -18.4786
v  148.024 90.0047 -18.4786
v  71.853 172.766 -18.4786
v  71.853 172.766 -18.4786
v  71.853 90.0047 28.9624
v  71.853 172.766 28.9624
v  71.853 90.0047 28.9624
v  71.853 172.766 -18.4786
v  71.853 90.0047 -18.4786
v  71.853 90.0047 -18.4786
v  71.853 172.766 -18.4786
v  71.853 90.0047 28.9624
v  71.853 172.766 28.9624
v  71.853 90.0047 28.9624
v  71.853 172.766 -18.4786
v  148.024 90.0047 -18.4786
v  71.853 90.0047 28.9624
v  71.853 90.0047 -18.4786
v  71.853 90.0047 28.9624
v  148.024 90.0047 -18.4786
v  148.024 90.0047 28.9624
v  148.024 90.0047 28.9624
v  148.024 90.0047 -18.4786
v  71.853 90.0047 28.9624
v  71.853 90.0047 -18.4786
v  71.853 90.0047 28.9624
v  148.024 90.0047 -18.4786
v  148.024 172.766 28.9624
v  71.853 172.766 28.9624
v  148.024 172.766 28.9624
v  148.024 172.766 -18.4786
v  148.024 172.766 -18.4786
v  71.853 172.766 -18.4786
v  71.853 172.766 28.9624
v  71.853 172.766 -18.4786
v  71.853 172.766 28.9624
v  71.853 90.0047 28.9624
v  71.853 90.0047 28.9624
v  148.024 90.0047 28.9624
v  148.024 90.0047 28.9624
v  148.024 172.766 28.9624
v  148.024 90.0047 28.9624
v  148.024 90.0047 -18.4786
v  148.024 90.0047 -18.4786
v  148.024 172.766 -18.4786
v  71.853 172.766 -18.4786
v  71.853 90.0047 -18.4786
v  71.853 90.0047 -18.4786
v  148.024 90.0047 -18.4786
v  71.853 90.0047 28.9624
v  71.853 90.0047 -18.4786
v  85.9773 121.247 9.49752
v  133.966 90.0047 9.49752
v  85.9773 90.0047 9.49752
v  133.966 90.0047 9.49752
v  85.9773 121.247 9.49752
v  133.966 121.247 9.49752
v  133.966 121.247 9.49752
v  85.9773 121.247 9.49752
v  133.966 90.0047 9.49752
v  85.9773 90.0047 9.49752
v  133.966 90.0047 9.49752
v  85.9773 121.247 9.49752
v  85.9773 121.247 9.49752
v  85.9773 90.0047 39.3007
v  85.9773 121.247 39.3007
v  85.9773 90.0047 39.3007
v  85.9773 121.247 9.49752
v  85.9773 90.0047 9.49752
v  85.9773 90.0047 9.49752
v  85.9773 121.247 9.49752
v  85.9773 90.0047 39.3007
v  85.9773 121.247 39.3007
v  85.9773 90.0047 39.3007
v  85.9773 121.247 9.49752
v  133.966 121.247 39.3007
v  85.9773 121.247 9.49752
v  85.9773 121.247 39.3007
v  85.9773 121.247 9.49752
v  133.966 121.247 39.3007
v  133.966 121.247 9.49752
v  133.966 121.247 9.49752
v  133.966 121.247 39.3007
v  85.9773 121.247 9.49752
v  85.9773 121.247 39.3007
v  85.9773 121.247 9.49752
v  133.966 121.247 39.3007
v  133.966 90.0047 9.49752
v  133.966 121.247 39.3007
v  133.966 90.0047 39.3007
v  133.966 121.247 39.3007
v  133.966 90.0047 9.49752
v  133.966 121.247 9.49752
v  133.966 121.247 9.49752
v  133.966 90.0047 9.49752
v  133.966 121.247 39.3007
v  133.966 90.0047 39.3007
v  133.966 121.247 39.3007
v  133.966 90.0047 9.49752
v  133.966 90.0047 9.49752
v  85.9773 90.0047 39.3007
v  85.9773 90.0047 9.49752
v  85.9773 90.0047 39.3007
v  133.966 90.0047 9.49752
v  133.966 90.0047 39.3007
v  133.966 90.0047 39.3007
v  133.966 90.0047 9.49752
v  85.9773 90.0047 39.3007
v  85.9773 90.0047 9.49752
v  85.9773 90.0047 39.3007
v  133.966 90.0047 9.49752
v  133.966 121.247 39.3007
v  85.9773 90.0047 39.3007
v  133.966 90.0047 39.3007
v  85.9773 90.0047 39.3007
v  133.966 121.247 39.3007
v  85.9773 121.247 39.3007
v  85.9773 121.247 39.3007
v  133.966 121.247 39.3007
v  85.9773 90.0047 39.3007
v  133.966 90.0047 39.3007
v  85.9773 90.0047 39.3007
v  133.966 121.247 39.3007
v  85.9773 90.0047 9.49752
v  85.9773 121.247 9.49752
v  85.9773 121.247 9.49752
v  133.966 121.247 9.49752
v  133.966 121.247 9.49752
v  133.966 90.0047 9.49752
v  133.966 90.0047 9.49752
v  85.9773 90.0047 9.49752
v  85.9773 90.0047 9.49752
v  85.9773 90.0047 39.3007
v  85.9773 90.0047 39.3007
v  85.9773 121.247 39.3007
v  85.9773 121.247 9.49752
v  85.9773 121.247 39.3007
v  85.9773 121.247 39.3007
v  133.966 121.247 39.3007
v  133.966 121.247 9.49752
v  133.966 121.247 39.3007
v  133.966 121.247 39.3007
v  133.966 90.0047 39.3007
v  133.966 90.0047 9.49752
v  133.966 90.0047 39.3007
v  133.966 90.0047 39.3007
v  85.9773 90.0047 39.3007
v  133.966 121.247 22.8041
v  133.966 132.074 39.3007
v  133.966 121.247 39.3007
v  133.966 132.074 39.3007
v  133.966 121.247 22.8041
v  133.966 132.074 22.8041
v  133.966 132.074 22.8041
v  133.966 121.247 22.8041
v  133.966 132.074 39.3007
v  133.966 121.247 39.3007
v  133.966 132.074 39.3007
v  133.966 121.247 22.8041
v  133.966 121.247 22.8041
v  85.9773 121.247 39.3007
v  85.9773 121.247 22.8041
v  85.9773 121.247 39.3007
v  133.966 121.247 22.8041
v  133.966 121.247 39.3007
v  133.966 121.247 39.3007
v  133.966 121.247 22.8041
v  85.9773 121.247 39.3007
v  85.9773 121.247 22.8041
v  85.9773 121.247 39.3007
v  133.966 121.247 22.8041
v  85.9773 132.074 22.8041
v  133.966 121.247 22.8041
v  85.9773 121.247 22.8041
v  133.966 121.247 22.8041
v  85.9773 132.074 22.8041
v  133.966 132.074 22.8041
v  133.966 132.074 22.8041
v  85.9773 132.074 22.8041
v  133.966 121.247 22.8041
v  85.9773 121.247 22.8041
v  133.966 121.247 22.8041
v  85.9773 132.074 22.8041
v  133.966 132.074 39.3007
v  85.9773 132.074 22.8041
v  85.9773 132.074 39.3007
v  85.9773 132.074 22.8041
v  133.966 132.074 39.3007
v  133.966 132.074 22.8041
v  133.966 132.074 22.8041
v  133.966 132.074 39.3007
v  85.9773 132.074 22.8041
v  85.9773 132.074 39.3007
v  85.9773 132.074 22.8041
v  133.966 132.074 39.3007
v  133.966 132.074 39.3007
v  85.9773 121.247 39.3007
v  133.966 121.247 39.3007
v  85.9773 121.247 39.3007
v  133.966 132.074 39.3007
v  85.9773 132.074 39.3007
v  85.9773 132.074 39.3007
v  133.966 132.074 39.3007
v  85.9773 121.247 39.3007
v  133.966 121.247 39.3007
v  85.9773 121.247 39.3007
v  133.966 132.074 39.3007
v  85.9773 132.074 22.8041
v  85.9773 121.247 39.3007
v  85.9773 132.074 39.3007
v  85.9773 121.247 39.3007
v  85.9773 132.074 22.8041
v  85.9773 121.247 22.8041
v  85.9773 121.247 22.8041
v  85.9773 132.074 22.8041
v  85.9773 121.247 39.3007
v  85.9773 132.074 39.3007
v  85.9773 121.247 39.3007
v  85.9773 132.074 22.8041
v  133.966 121.247 39.3007
v  133.966 121.247 22.8041
v  133.966 121.247 22.8041
v  133.966 132.074 22.8041
v  133.966 132.074 39.3007
v  133.966 132.074 22.8041
v  133.966 121.247 39.3007
v  133.966 132.074 39.3007
v  133.966 121.247 22.8041
v  85.9773 121.247 22.8041
v  85.9773 121.247 39.3007
v  133.966 121.247 39.3007
v  85.9773 121.247 22.8041
v  85.9773 121.247 39.3007
v  85.9773 121.247 22.8041
v  85.9773 132.074 22.8041
v  133.966 132.074 22.8041
v  85.9773 132.074 22.8041
v  85.9773 132.074 22.8041
v  85.9773 132.074 39.3007
v  85.9773 132.074 39.3007
v  133.966 132.074 39.3007
v  85.9773 121.247 39.3007
v  85.9773 132.074 39.3007
v  104.692 132.074 28.4112
v  104.692 150.302 32.0726
v  104.692 132.074 32.0726
v  104.692 150.302 32.0726
v  104.692 132.074 28.4112
v  104.692 150.302 28.4112
v  94.7313 150.302 28.4112
v  104.692 132.074 28.4112
v  94.7313 132.074 28.4112
v  104.692 132.074 28.4112
v  94.7313 150.302 28.4112
v  104.692 150.302 28.4112
v  104.692 150.302 32.0726
v  94.7313 150.302 28.4112
v  94.7313 150.302 32.0726
v  94.7313 150.302 28.4112
v  104.692 150.302 32.0726
v  104.692 150.302 28.4112
v  104.692 150.302 32.0726
v  94.7313 132.074 32.0726
v  104.692 132.074 32.0726
v  94.7313 132.074 32.0726
v  104.692 150.302 32.0726
v  94.7313 150.302 32.0726
v  104.692 132.074 28.4112
v  94.7313 132.074 32.0726
v  94.7313 132.074 28.4112
v  94.7313 132.074 32.0726
v  104.692 132.074 28.4112
v  104.692 132.074 32.0726
v  94.7313 150.302 28.4112
v  94.7313 132.074 32.0726
v  94.7313 150.302 32.0726
v  94.7313 132.074 32.0726
v  94.7313 150.302 28.4112
v  94.7313 132.074 28.4112
v  104.692 150.302 28.4112
v  104.692 132.074 28.4112
v  104.692 150.302 32.0726
v  104.692 132.074 32.0726
v  104.692 150.302 32.0726
v  104.692 132.074 28.4112
v  104.692 150.302 28.4112
v  94.7313 150.302 28.4112
v  104.692 132.074 28.4112
v  94.7313 132.074 28.4112
v  104.692 132.074 28.4112
v  94.7313 150.302 28.4112
v  104.692 150.302 28.4112
v  104.692 150.302 32.0726
v  94.7313 150.302 28.4112
v  94.7313 150.302 32.0726
v  94.7313 150.302 28.4112
v  104.692 150.302 32.0726
v  94.7313 150.302 32.0726
v  104.692 150.302 32.0726
v  94.7313 132.074 32.0726
v  104.692 132.074 32.0726
v  94.7313 132.074 32.0726
v  104.692 150.302 32.0726
v  104.692 132.074 32.0726
v  104.692 132.074 28.4112
v  94.7313 132.074 32.0726
v  94.7313 132.074 28.4112
v  94.7313 132.074 32.0726
v  104.692 132.074 28.4112
v  94.7313 132.074 28.4112
v  94.7313 150.302 28.4112
v  94.7313 132.074 32.0726
v  94.7313 150.302 32.0726
v  94.7313 132.074 32.0726
v  94.7313 150.302 28.4112
v  104.692 150.302 28.4112
v  104.692 132.074 28.4112
v  104.692 150.302 28.4112
v  104.692 150.302 32.0726
v  104.692 150.302 32.0726
v  104.692 132.074 32.0726
v  104.692 132.074 28.4112
v  104.692 132.074 32.0726
v  94.7313 150.302 28.4112
v  104.692 150.302 28.4112
v  104.692 132.074 28.4112
v  94.7313 132.074 28.4112
v  94.7313 132.074 28.4112
v  94.7313 150.302 28.4112
v  94.7313 150.302 28.4112
v  94.7313 150.302 32.0726
v  94.7313 150.302 32.0726
v  104.692 150.302 32.0726
v  94.7313 132.074 32.0726
v  94.7313 150.302 32.0726
v  104.692 132.074 32.0726
v  94.7313 132.074 32.0726
v  94.7313 132.074 28.4112
v  94.7313 132.074 32.0726
v  126.464 132.074 28.9624
v  126.464 150.302 32.6238
v  126.464 132.074 32.6238
v  126.464 150.302 32.6238
v  126.464 132.074 28.9624
v  126.464 150.302 28.9624
v  116.504 150.302 28.9624
v  126.464 132.074 28.9624
v  116.504 132.074 28.9624
v  126.464 132.074 28.9624
v  116.504 150.302 28.9624
v  126.464 150.302 28.9624
v  126.464 150.302 32.6238
v  116.504 150.302 28.9624
v  116.504 150.302 32.6238
v  116.504 150.302 28.9624
v  126.464 150.302 32.6238
v  126.464 150.302 28.9624
v  126.464 150.302 32.6238
v  116.504 132.074 32.6238
v  126.464 132.074 32.6238
v  116.504 132.074 32.6238
v  126.464 150.302 32.6238
v  116.504 150.302 32.6238
v  126.464 132.074 28.9624
v  116.504 132.074 32.6238
v  116.504 132.074 28.9624
v  116.504 132.074 32.6238
v  126.464 132.074 28.9624
v  126.464 132.074 32.6238
v  116.504 150.302 28.9624
v  116.504 132.074 32.6238
v  116.504 150.302 32.6238
v  116.504 132.074 32.6238
v  116.504 150.302 28.9624
v  116.504 132.074 28.9624
v  126.464 150.302 28.9624
v  126.464 132.074 28.9624
v  126.464 150.302 32.6238
v  126.464 132.074 32.6238
v  126.464 150.302 32.6238
v  126.464 132.074 28.9624
v  126.464 150.302 28.9624
v  116.504 150.302 28.9624
v  126.464 132.074 28.9624
v  116.504 132.074 28.9624
v  126.464 132.074 28.9624
v  116.504 150.302 28.9624
v  126.464 150.302 28.9624
v  126.464 150.302 32.6238
v  116.504 150.302 28.9624
v  116.504 150.302 32.6238
v  116.504 150.302 28.9624
v  126.464 150.302 32.6238
v  116.504 150.302 32.6238
v  126.464 150.302 32.6238
v  116.504 132.074 32.6238
v  126.464 132.074 32.6238
v  116.504 132.074 32.6238
v  126.464 150.302 32.6238
v  126.464 132.074 32.6238
v  126.464 132.074 28.9624
v  116.504 132.074 32.6238
v  116.504 132.074 28.9624
v  116.504 132.074 32.6238
v  126.464 132.074 28.9624
v  116.504 132.074 28.9624
v  116.504 150.302 28.9624
v  116.504 132.074 32.6238
v  116.504 150.302 32.6238
v  116.504 132.074 32.6238
v  116.504 150.302 28.9624
v  126.464 150.302 28.9624
v  126.464 132.074 28.9624
v  126.464 150.302 28.9624
v  126.464 150.302 32.6238
v  126.464 150.302 32.6238
v  126.464 132.074 32.6238
v  126.464 132.074 28.9624
v  126.464 132.074 32.6238
v  116.504 150.302 28.9624
v  126.464 150.302 28.9624
v  126.464 132.074 28.9624
v  116.504 132.074 28.9624
v  116.504 132.074 28.9624
v  116.504 150.302 28.9624
v  116.504 150.302 28.9624
v  116.504 150.302 32.6238
v  116.504 150.302 32.6238
v  126.464 150.302 32.6238
v  116.504 132.074 32.6238
v  116.504 150.302 32.6238
v  126.464 132.074 32.6238
v  116.504 132.074 32.6238
v  116.504 132.074 28.9624
v  116.504 132.074 32.6238
v  80.5112 167.174 8.04095
v  80.5112 183.682 22.5291
v  80.5112 167.174 22.5291
v  80.5112 183.682 22.5291
v  80.5112 167.174 8.04095
v  80.5112 183.682 8.04095
v  80.5112 183.682 8.04095
v  80.5112 167.174 8.04095
v  80.5112 183.682 22.5291
v  80.5112 167.174 22.5291
v  80.5112 183.682 22.5291
v  80.5112 167.174 8.04095
v  80.5112 183.682 22.5291
v  62.9411 167.174 22.5291
v  80.5112 167.174 22.5291
v  62.9411 167.174 22.5291
v  80.5112 183.682 22.5291
v  62.9411 183.682 22.5291
v  62.9411 183.682 22.5291
v  80.5112 183.682 22.5291
v  62.9411 167.174 22.5291
v  80.5112 167.174 22.5291
v  62.9411 167.174 22.5291
v  80.5112 183.682 22.5291
v  80.5112 167.174 8.04095
v  62.9411 167.174 22.5291
v  62.9411 167.174 8.04095
v  62.9411 167.174 22.5291
v  80.5112 167.174 8.04095
v  80.5112 167.174 22.5291
v  80.5112 167.174 22.5291
v  80.5112 167.174 8.04095
v  62.9411 167.174 22.5291
v  62.9411 167.174 8.04095
v  62.9411 167.174 22.5291
v  80.5112 167.174 8.04095
v  62.9411 183.682 8.04095
v  80.5112 167.174 8.04095
v  62.9411 167.174 8.04095
v  80.5112 167.174 8.04095
v  62.9411 183.682 8.04095
v  80.5112 183.682 8.04095
v  80.5112 183.682 8.04095
v  62.9411 183.682 8.04095
v  80.5112 167.174 8.04095
v  62.9411 167.174 8.04095
v  80.5112 167.174 8.04095
v  62.9411 183.682 8.04095
v  80.5112 183.682 22.5291
v  62.9411 183.682 8.04095
v  62.9411 183.682 22.5291
v  62.9411 183.682 8.04095
v  80.5112 183.682 22.5291
v  80.5112 183.682 8.04095
v  80.5112 183.682 8.04095
v  80.5112 183.682 22.5291
v  62.9411 183.682 8.04095
v  62.9411 183.682 22.5291
v  62.9411 183.682 8.04095
v  80.5112 183.682 22.5291
v  62.9411 183.682 8.04095
v  62.9411 167.174 22.5291
v  62.9411 183.682 22.5291
v  62.9411 167.174 22.5291
v  62.9411 183.682 8.04095
v  62.9411 167.174 8.04095
v  62.9411 167.174 8.04095
v  62.9411 183.682 8.04095
v  62.9411 167.174 22.5291
v  62.9411 183.682 22.5291
v  62.9411 167.174 22.5291
v  62.9411 183.682 8.04095
v  80.5112 183.682 22.5291
v  80.5112 167.174 22.5291
v  80.5112 167.174 22.5291
v  80.5112 167.174 8.04095
v  80.5112 183.682 8.04095
v  80.5112 167.174 8.04095
v  80.5112 183.682 22.5291
v  80.5112 183.682 8.04095
v  62.9411 183.682 22.5291
v  80.5112 183.682 22.5291
v  62.9411 167.174 22.5291
v  62.9411 183.682 22.5291
v  80.5112 167.174 22.5291
v  62.9411 167.174 22.5291
v  62.9411 167.174 22.5291
v  62.9411 167.174 8.04095
v  80.5112 167.174 8.04095
v  62.9411 167.174 8.04095
v  62.9411 167.174 8.04095
v  62.9411 183.682 8.04095
v  62.9411 183.682 8.04095
v  80.5112 183.682 8.04095
v  62.9411 183.682 22.5291
v  62.9411 183.682 8.04095
v  156.184 166.59 8.04095
v  156.184 183.097 22.5291
v  156.184 166.59 22.5291
v  156.184 183.097 22.5291
v  156.184 166.59 8.04095
v  156.184 183.097 8.04095
v  156.184 183.097 8.04095
v  156.184 166.59 8.04095
v  156.184 183.097 22.5291
v  156.184 166.59 22.5291
v  156.184 183.097 22.5291
v  156.184 166.59 8.04095
v  156.184 183.097 22.5291
v  138.614 166.59 22.5291
v  156.184 166.59 22.5291
v  138.614 166.59 22.5291
v  156.184 183.097 22.5291
v  138.614 183.097 22.5291
v  138.614 183.097 22.5291
v  156.184 183.097 22.5291
v  138.614 166.59 22.5291
v  156.184 166.59 22.5291
v  138.614 166.59 22.5291
v  156.184 183.097 22.5291
v  156.184 166.59 8.04095
v  138.614 166.59 22.5291
v  138.614 166.59 8.04095
v  138.614 166.59 22.5291
v  156.184 166.59 8.04095
v  156.184 166.59 22.5291
v  156.184 166.59 22.5291
v  156.184 166.59 8.04095
v  138.614 166.59 22.5291
v  138.614 166.59 8.04095
v  138.614 166.59 22.5291
v  156.184 166.59 8.04095
v  138.614 183.097 8.04095
v  156.184 166.59 8.04095
v  138.614 166.59 8.04095
v  156.184 166.59 8.04095
v  138.614 183.097 8.04095
v  156.184 183.097 8.04095
v  156.184 183.097 8.04095
v  138.614 183.097 8.04095
v  156.184 166.59 8.04095
v  138.614 166.59 8.04095
v  156.184 166.59 8.04095
v  138.614 183.097 8.04095
v  156.184 183.097 22.5291
v  138.614 183.097 8.04095
v  138.614 183.097 22.5291
v  138.614 183.097 8.04095
v  156.184 183.097 22.5291
v  156.184 183.097 8.04095
v  156.184 183.097 8.04095
v  156.184 183.097 22.5291
v  138.614 183.097 8.04095
v  138.614 183.097 22.5291
v  138.614 183.097 8.04095
v  156.184 183.097 22.5291
v  138.614 183.097 8.04095
v  138.614 166.59 22.5291
v  138.614 183.097 22.5291
v  138.614 166.59 22.5291
v  138.614 183.097 8.04095
v  138.614 166.59 8.04095
v  138.614 166.59 8.04095
v  138.614 183.097 8.04095
v  138.614 166.59 22.5291
v  138.614 183.097 22.5291
v  138.614 166.59 22.5291
v  138.614 183.097 8.04095
v  156.184 183.097 22.5291
v  156.184 166.59 22.5291
v  156.184 166.59 22.5291
v  156.184 166.59 8.04095
v  156.184 183.097 8.04095
v  156.184 166.59 8.04095
v  156.184 183.097 22.5291
v  156.184 183.097 8.04095
v  138.614 183.097 22.5291
v  156.184 183.097 22.5291
v  138.614 166.59 22.5291
v  138.614 183.097 22.5291
v  156.184 166.59 22.5291
v  138.614 166.59 22.5291
v  138.614 166.59 22.5291
v  138.614 166.59 8.04095
v  156.184 166.59 8.04095
v  138.614 166.59 8.04095
v  138.614 166.59 8.04095
v  138.614 183.097 8.04095
v  138.614 183.097 8.04095
v  156.184 183.097 8.04095
v  138.614 183.097 22.5291
v  138.614 183.097 8.04095
v  92.0704 104.292 0
v  65.2594 1.22126 0
v  92.0704 1.22126 0
v  65.2594 1.22126 0
v  92.0704 104.292 0
v  65.2594 104.292 0
v  65.2594 104.292 0
v  92.0704 104.292 0
v  65.2594 1.22126 0
v  92.0704 1.22126 0
v  65.2594 1.22126 0
v  92.0704 104.292 0
v  65.2594 104.292 -22.6378
v  65.2594 1.22126 0
v  65.2594 104.292 0
v  65.2594 1.22126 0
v  65.2594 104.292 -22.6378
v  65.2594 1.22126 -22.6378
v  65.2594 1.22126 -22.6378
v  65.2594 104.292 -22.6378
v  65.2594 1.22126 0
v  65.2594 104.292 0
v  65.2594 1.22126 0
v  65.2594 104.292 -22.6378
v  92.0704 1.22126 -22.6378
v  65.2594 1.22126 0
v  65.2594 1.22126 -22.6378
v  65.2594 1.22126 0
v  92.0704 1.22126 -22.6378
v  92.0704 1.22126 0
v  92.0704 1.22126 0
v  92.0704 1.22126 -22.6378
v  65.2594 1.22126 0
v  65.2594 1.22126 -22.6378
v  65.2594 1.22126 0
v  92.0704 1.22126 -22.6378
v  92.0704 1.22126 -22.6378
v  92.0704 104.292 0
v  92.0704 1.22126 0
v  92.0704 104.292 0
v  92.0704 1.22126 -22.6378
v  92.0704 104.292 -22.6378
v  92.0704 104.292 -22.6378
v  92.0704 1.22126 -22.6378
v  92.0704 104.292 0
v  92.0704 1.22126 0
v  92.0704 104.292 0
v  92.0704 1.22126 -22.6378
v  92.0704 104.292 0
v  65.2594 104.292 -22.6378
v  65.2594 104.292 0
v  65.2594 104.292 -22.6378
v  92.0704 104.292 0
v  92.0704 104.292 -22.6378
v  92.0704 104.292 -22.6378
v  92.0704 104.292 0
v  65.2594 104.292 -22.6378
v  65.2594 104.292 0
v  65.2594 104.292 -22.6378
v  92.0704 104.292 0
v  65.2594 104.292 -22.6378
v  92.0704 1.22126 -22.6378
v  65.2594 1.22126 -22.6378
v  92.0704 1.22126 -22.6378
v  65.2594 104.292 -22.6378
v  92.0704 104.292 -22.6378
v  92.0704 104.292 -22.6378
v  65.2594 104.292 -22.6378
v  92.0704 1.22126 -22.6378
v  65.2594 1.22126 -22.6378
v  92.0704 1.22126 -22.6378
v  65.2594 104.292 -22.6378
v  65.2594 1.22126 0
v  65.2594 104.292 0
v  92.0704 1.22126 0
v  65.2594 1.22126 0
v  92.0704 104.292 0
v  92.0704 1.22126 0
v  65.2594 104.292 0
v  92.0704 104.292 0
v  65.2594 104.292 0
v  65.2594 104.292 -22.6378
v  65.2594 1.22126 -22.6378
v  65.2594 104.292 -22.6378
v  65.2594 1.22126 0
v  65.2594 1.22126 -22.6378
v  92.0704 1.22126 -22.6378
v  65.2594 1.22126 -22.6378
v  92.0704 1.22126 0
v  92.0704 1.22126 -22.6378
v  92.0704 104.292 -22.6378
v  92.0704 1.22126 -22.6378
v  92.0704 104.292 0
v  92.0704 104.292 -22.6378
v  65.2594 104.292 -22.6378
v  92.0704 104.292 -22.6378
v  148.978 103.071 -2.53326
v  122.167 0 -2.53326
v  148.978 0 -2.53326
v  122.167 0 -2.53326
v  148.978 103.071 -2.53326
v  122.167 103.071 -2.53326
v  122.167 103.071 -2.53326
v  148.978 103.071 -2.53326
v  122.167 0 -2.53326
v  148.978 0 -2.53326
v  122.167 0 -2.53326
v  148.978 103.071 -2.53326
v  122.167 103.071 -25.1711
v  122.167 0 -2.53326
v  122.167 103.071 -2.53326
v  122.167 0 -2.53326
v  122.167 103.071 -25.1711
v  122.167 0 -25.1711
v  122.167 0 -25.1711
v  122.167 103.071 -25.1711
v  122.167 0 -2.53326
v  122.167 103.071 -2.53326
v  122.167 0 -2.53326
v  122.167 103.071 -25.1711
v  148.978 0 -25.1711
v  122.167 0 -2.53326
v  122.167 0 -25.1711
v  122.167 0 -2.53326
v  148.978 0 -25.1711
v  148.978 0 -2.53326
v  148.978 0 -2.53326
v  148.978 0 -25.1711
v  122.167 0 -2.53326
v  122.167 0 -25.1711
v  122.167 0 -2.53326
v  148.978 0 -25.1711
v  148.978 0 -25.1711
v  148.978 103.071 -2.53326
v  148.978 0 -2.53326
v  148.978 103.071 -2.53326
v  148.978 0 -25.1711
v  148.978 103.071 -25.1711
v  148.978 103.071 -25.1711
v  148.978 0 -25.1711
v  148.978 103.071 -2.53326
v  148.978 0 -2.53326
v  148.978 103.071 -2.53326
v  148.978 0 -25.1711
v  148.978 103.071 -2.53326
v  122.167 103.071 -25.1711
v  122.167 103.071 -2.53326
v  122.167 103.071 -25.1711
v  148.978 103.071 -2.53326
v  148.978 103.071 -25.1711
v  148.978 103.071 -25.1711
v  148.978 103.071 -2.53326
v  122.167 103.071 -25.1711
v  122.167 103.071 -2.53326
v  122.167 103.071 -25.1711
v  148.978 103.071 -2.53326
v  122.167 103.071 -25.1711
v  148.978 0 -25.1711
v  122.167 0 -25.1711
v  148.978 0 -25.1711
v  122.167 103.071 -25.1711
v  148.978 103.071 -25.1711
v  148.978 103.071 -25.1711
v  122.167 103.071 -25.1711
v  148.978 0 -25.1711
v  122.167 0 -25.1711
v  148.978 0 -25.1711
v  122.167 103.071 -25.1711
v  122.167 0 -2.53326
v  122.167 103.071 -2.53326
v  148.978 0 -2.53326
v  122.167 0 -2.53326
v  148.978 103.071 -2.53326
v  148.978 0 -2.53326
v  122.167 103.071 -2.53326
v  148.978 103.071 -2.53326
v  122.167 103.071 -2.53326
v  122.167 103.071 -25.1711
v  122.167 0 -25.1711
v  122.167 103.071 -25.1711
v  122.167 0 -2.53326
v  122.167 0 -25.1711
v  148.978 0 -25.1711
v  122.167 0 -25.1711
v  148.978 0 -2.53326
v  148.978 0 -25.1711
v  148.978 103.071 -25.1711
v  148.978 0 -25.1711
v  148.978 103.071 -2.53326
v  148.978 103.071 -25.1711
v  122.167 103.071 -25.1711
v  148.978 103.071 -25.1711
v  89.9522 103.071 -63.1576
v  63.1412 0 -63.1576
v  89.9522 0 -63.1576
v  63.1412 0 -63.1576
v  89.9522 103.071 -63.1576
v  63.1412 103.071 -63.1576
v  63.1412 103.071 -63.1576
v  89.9522 103.071 -63.1576
v  63.1412 0 -63.1576
v  89.9522 0 -63.1576
v  63.1412 0 -63.1576
v  89.9522 103.071 -63.1576
v  63.1412 103.071 -85.7954
v  63.1412 0 -63.1576
v  63.1412 103.071 -63.1576
v  63.1412 0 -63.1576
v  63.1412 103.071 -85.7954
v  63.1412 0 -85.7954
v  63.1412 0 -85.7954
v  63.1412 103.071 -85.7954
v  63.1412 0 -63.1576
v  63.1412 103.071 -63.1576
v  63.1412 0 -63.1576
v  63.1412 103.071 -85.7954
v  89.9522 0 -85.7954
v  63.1412 0 -63.1576
v  63.1412 0 -85.7954
v  63.1412 0 -63.1576
v  89.9522 0 -85.7954
v  89.9522 0 -63.1576
v  89.9522 0 -63.1576
v  89.9522 0 -85.7954
v  63.1412 0 -63.1576
v  63.1412 0 -85.7954
v  63.1412 0 -63.1576
v  89.9522 0 -85.7954
v  89.9522 0 -85.7954
v  89.9522 103.071 -63.1576
v  89.9522 0 -63.1576
v  89.9522 103.071 -63.1576
v  89.9522 0 -85.7954
v  89.9522 103.071 -85.7954
v  89.9522 103.071 -85.7954
v  89.9522 0 -85.7954
v  89.9522 103.071 -63.1576
v  89.9522 0 -63.1576
v  89.9522 103.071 -63.1576
v  89.9522 0 -85.7954
v  89.9522 103.071 -63.1576
v  63.1412 103.071 -85.7954
v  63.1412 103.071 -63.1576
v  63.1412 103.071 -85.7954
v  89.9522 103.071 -63.1576
v  89.9522 103.071 -85.7954
v  89.9522 103.071 -85.7954
v  89.9522 103.071 -63.1576
v  63.1412 103.071 -85.7954
v  63.1412 103.071 -63.1576
v  63.1412 103.071 -85.7954
v  89.9522 103.071 -63.1576
v  63.1412 103.071 -85.7954
v  89.9522 0 -85.7954
v  63.1412 0 -85.7954
v  89.9522 0 -85.7954
v  63.1412 103.071 -85.7954
v  89.9522 103.071 -85.7954
v  89.9522 103.071 -85.7954
v  63.1412 103.071 -85.7954
v  89.9522 0 -85.7954
v  63.1412 0 -85.7954
v  89.9522 0 -85.7954
v  63.1412 103.071 -85.7954
v  63.1412 0 -63.1576
v  63.1412 103.071 -63.1576
v  89.9522 0 -63.1576
v  63.1412 0 -63.1576
v  89.9522 103.071 -63.1576
v  89.9522 0 -63.1576
v  63.1412 103.071 -63.1576
v  89.9522 103.071 -63.1576
v  63.1412 103.071 -63.1576
v  63.1412 103.071 -85.7954
v  63.1412 0 -85.7954
v  63.1412 103.071 -85.7954
v  63.1412 0 -63.1576
v  63.1412 0 -85.7954
v  89.9522 0 -85.7954
v  63.1412 0 -85.7954
v  89.9522 0 -63.1576
v  89.9522 0 -85.7954
v  89.9522 103.071 -85.7954
v  89.9522 0 -85.7954
v  89.9522 103.071 -63.1576
v  89.9522 103.071 -85.7954
v  63.1412 103.071 -85.7954
v  89.9522 103.071 -85.7954
v  157.557 110.342 -68.3687
v  130.746 7.27116 -68.3687
v  157.557 7.27116 -68.3687
v  130.746 7.27116 -68.3687
v  157.557 110.342 -68.3687
v  130.746 110.342 -68.3687
v  130.746 110.342 -68.3687
v  157.557 110.342 -68.3687
v  130.746 7.27116 -68.3687
v  157.557 7.27116 -68.3687
v  130.746 7.27116 -68.3687
v  157.557 110.342 -68.3687
v  130.746 110.342 -91.0065
v  130.746 7.27116 -68.3687
v  130.746 110.342 -68.3687
v  130.746 7.27116 -68.3687
v  130.746 110.342 -91.0065
v  130.746 7.27116 -91.0065
v  130.746 7.27116 -91.0065
v  130.746 110.342 -91.0065
v  130.746 7.27116 -68.3687
v  130.746 110.342 -68.3687
v  130.746 7.27116 -68.3687
v  130.746 110.342 -91.0065
v  157.557 7.27116 -91.0065
v  130.746 7.27116 -68.3687
v  130.746 7.27116 -91.0065
v  130.746 7.27116 -68.3687
v  157.557 7.27116 -91.0065
v  157.557 7.27116 -68.3687
v  157.557 7.27116 -68.3687
v  157.557 7.27116 -91.0065
v  130.746 7.27116 -68.3687
v  130.746 7.27116 -91.0065
v  130.746 7.27116 -68.3687
v  157.557 7.27116 -91.0065
v  157.557 7.27116 -91.0065
v  157.557 110.342 -68.3687
v  157.557 7.27116 -68.3687
v  157.557 110.342 -68.3687
v  157.557 7.27116 -91.0065
v  157.557 110.342 -91.0065
v  157.557 110.342 -91.0065
v  157.557 7.27116 -91.0065
v  157.557 110.342 -68.3687
v  157.557 7.27116 -68.3687
v  157.557 110.342 -68.3687
v  157.557 7.27116 -91.0065
v  157.557 110.342 -68.3687
v  130.746 110.342 -91.0065
v  130.746 110.342 -68.3687
v  130.746 110.342 -91.0065
v  157.557 110.342 -68.3687
v  157.557 110.342 -91.0065
v  157.557 110.342 -91.0065
v  157.557 110.342 -68.3687
v  130.746 110.342 -91.0065
v  130.746 110.342 -68.3687
v  130.746 110.342 -91.0065
v  157.557 110.342 -68.3687
v  130.746 110.342 -91.0065
v  157.557 7.27116 -91.0065
v  130.746 7.27116 -91.0065
v  157.557 7.27116 -91.0065
v  130.746 110.342 -91.0065
v  157.557 110.342 -91.0065
v  157.557 110.342 -91.0065
v  130.746 110.342 -91.0065
v  157.557 7.27116 -91.0065
v  130.746 7.27116 -91.0065
v  157.557 7.27116 -91.0065
v  130.746 110.342 -91.0065
v  130.746 7.27116 -68.3687
v  130.746 110.342 -68.3687
v  157.557 7.27116 -68.3687
v  130.746 7.27116 -68.3687
v  157.557 110.342 -68.3687
v  157.557 7.27116 -68.3687
v  130.746 110.342 -68.3687
v  157.557 110.342 -68.3687
v  130.746 110.342 -68.3687
v  130.746 110.342 -91.0065
v  130.746 7.27116 -91.0065
v  130.746 110.342 -91.0065
v  130.746 7.27116 -68.3687
v  130.746 7.27116 -91.0065
v  157.557 7.27116 -91.0065
v  130.746 7.27116 -91.0065
v  157.557 7.27116 -68.3687
v  157.557 7.27116 -91.0065
v  157.557 110.342 -91.0065
v  157.557 7.27116 -91.0065
v  157.557 110.342 -68.3687
v  157.557 110.342 -91.0065
v  130.746 110.342 -91.0065
v  157.557 110.342 -91.0065
v  92.031 9.76457 8.85827
v  65.2594 1.22126 8.85827
v  92.031 1.22126 8.85827
v  65.2594 1.22126 8.85827
v  92.031 9.76457 8.85827
v  65.2594 9.76457 8.85827
v  65.2594 9.76457 8.85827
v  92.031 9.76457 8.85827
v  65.2594 1.22126 8.85827
v  92.031 1.22126 8.85827
v  65.2594 1.22126 8.85827
v  92.031 9.76457 8.85827
v  65.2594 9.76457 0
v  65.2594 1.22126 8.85827
v  65.2594 9.76457 8.85827
v  65.2594 1.22126 8.85827
v  65.2594 9.76457 0
v  65.2594 1.22126 0
v  65.2594 1.22126 0
v  65.2594 9.76457 0
v  65.2594 1.22126 8.85827
v  65.2594 9.76457 8.85827
v  65.2594 1.22126 8.85827
v  65.2594 9.76457 0
v  92.031 1.22126 0
v  65.2594 1.22126 8.85827
v  65.2594 1.22126 0
v  65.2594 1.22126 8.85827
v  92.031 1.22126 0
v  92.031 1.22126 8.85827
v  92.031 1.22126 8.85827
v  92.031 1.22126 0
v  65.2594 1.22126 8.85827
v  65.2594 1.22126 0
v  65.2594 1.22126 8.85827
v  92.031 1.22126 0
v  92.031 1.22126 0
v  92.031 9.76457 8.85827
v  92.031 1.22126 8.85827
v  92.031 9.76457 8.85827
v  92.031 1.22126 0
v  92.031 9.76457 0
v  92.031 9.76457 0
v  92.031 1.22126 0
v  92.031 9.76457 8.85827
v  92.031 1.22126 8.85827
v  92.031 9.76457 8.85827
v  92.031 1.22126 0
v  92.031 9.76457 8.85827
v  65.2594 9.76457 0
v  65.2594 9.76457 8.85827
v  65.2594 9.76457 0
v  92.031 9.76457 8.85827
v  92.031 9.76457 0
v  92.031 9.76457 0
v  92.031 9.76457 8.85827
v  65.2594 9.76457 0
v  65.2594 9.76457 8.85827
v  65.2594 9.76457 0
v  92.031 9.76457 8.85827
v  65.2594 9.76457 0
v  92.031 1.22126 0
v  65.2594 1.22126 0
v  92.031 1.22126 0
v  65.2594 9.76457 0
v  92.031 9.76457 0
v  92.031 9.76457 0
v  65.2594 9.76457 0
v  92.031 1.22126 0
v  65.2594 1.22126 0
v  92.031 1.22126 0
v  65.2594 9.76457 0
v  65.2594 1.22126 8.85827
v  65.2594 9.76457 8.85827
v  92.031 1.22126 8.85827
v  65.2594 1.22126 8.85827
v  92.031 9.76457 8.85827
v  92.031 1.22126 8.85827
v  65.2594 9.76457 8.85827
v  92.031 9.76457 8.85827
v  65.2594 9.76457 8.85827
v  65.2594 9.76457 0
v  65.2594 1.22126 0
v  65.2594 9.76457 0
v  65.2594 1.22126 8.85827
v  65.2594 1.22126 0
v  92.031 1.22126 0
v  65.2594 1.22126 0
v  92.031 1.22126 8.85827
v  92.031 1.22126 0
v  92.031 9.76457 0
v  92.031 1.22126 0
v  92.031 9.76457 8.85827
v  92.031 9.76457 0
v  65.2594 9.76457 0
v  92.031 9.76457 0
v  148.939 8.54331 6.32501
v  122.167 0 6.32501
v  148.939 0 6.32501
v  122.167 0 6.32501
v  148.939 8.54331 6.32501
v  122.167 8.54331 6.32501
v  122.167 8.54331 6.32501
v  148.939 8.54331 6.32501
v  122.167 0 6.32501
v  148.939 0 6.32501
v  122.167 0 6.32501
v  148.939 8.54331 6.32501
v  122.167 8.54331 -2.53326
v  122.167 0 6.32501
v  122.167 8.54331 6.32501
v  122.167 0 6.32501
v  122.167 8.54331 -2.53326
v  122.167 0 -2.53326
v  122.167 0 -2.53326
v  122.167 8.54331 -2.53326
v  122.167 0 6.32501
v  122.167 8.54331 6.32501
v  122.167 0 6.32501
v  122.167 8.54331 -2.53326
v  148.939 0 -2.53326
v  122.167 0 6.32501
v  122.167 0 -2.53326
v  122.167 0 6.32501
v  148.939 0 -2.53326
v  148.939 0 6.32501
v  148.939 0 6.32501
v  148.939 0 -2.53326
v  122.167 0 6.32501
v  122.167 0 -2.53326
v  122.167 0 6.32501
v  148.939 0 -2.53326
v  148.939 0 -2.53326
v  148.939 8.54331 6.32501
v  148.939 0 6.32501
v  148.939 8.54331 6.32501
v  148.939 0 -2.53326
v  148.939 8.54331 -2.53326
v  148.939 8.54331 -2.53326
v  148.939 0 -2.53326
v  148.939 8.54331 6.32501
v  148.939 0 6.32501
v  148.939 8.54331 6.32501
v  148.939 0 -2.53326
v  148.939 8.54331 6.32501
v  122.167 8.54331 -2.53326
v  122.167 8.54331 6.32501
v  122.167 8.54331 -2.53326
v  148.939 8.54331 6.32501
v  148.939 8.54331 -2.53326
v  148.939 8.54331 -2.53326
v  148.939 8.54331 6.32501
v  122.167 8.54331 -2.53326
v  122.167 8.54331 6.32501
v  122.167 8.54331 -2.53326
v  148.939 8.54331 6.32501
v  122.167 8.54331 -2.53326
v  148.939 0 -2.53326
v  122.167 0 -2.53326
v  148.939 0 -2.53326
v  122.167 8.54331 -2.53326
v  148.939 8.54331 -2.53326
v  148.939 8.54331 -2.53326
v  122.167 8.54331 -2.53326
v  148.939 0 -2.53326
v  122.167 0 -2.53326
v  148.939 0 -2.53326
v  122.167 8.54331 -2.53326
v  122.167 0 6.32501
v  122.167 8.54331 6.32501
v  148.939 0 6.32501
v  122.167 0 6.32501
v  148.939 8.54331 6.32501
v  148.939 0 6.32501
v  122.167 8.54331 6.32501
v  148.939 8.54331 6.32501
v  122.167 8.54331 6.32501
v  122.167 8.54331 -2.53326
v  122.167 0 -2.53326
v  122.167 8.54331 -2.53326
v  122.167 0 6.32501
v  122.167 0 -2.53326
v  148.939 0 -2.53326
v  122.167 0 -2.53326
v  148.939 0 6.32501
v  148.939 0 -2.53326
v  148.939 8.54331 -2.53326
v  148.939 0 -2.53326
v  148.939 8.54331 6.32501
v  148.939 8.54331 -2.53326
v  122.167 8.54331 -2.53326
v  148.939 8.54331 -2.53326
v  157.557 15.8145 -59.5104
v  130.785 7.27116 -59.5104
v  157.557 7.27116 -59.5104
v  130.785 7.27116 -59.5104
v  157.557 15.8145 -59.5104
v  130.785 15.8145 -59.5104
v  130.785 15.8145 -59.5104
v  157.557 15.8145 -59.5104
v  130.785 7.27116 -59.5104
v  157.557 7.27116 -59.5104
v  130.785 7.27116 -59.5104
v  157.557 15.8145 -59.5104
v  130.785 15.8145 -68.3687
v  130.785 7.27116 -59.5104
v  130.785 15.8145 -59.5104
v  130.785 7.27116 -59.5104
v  130.785 15.8145 -68.3687
v  130.785 7.27116 -68.3687
v  130.785 7.27116 -68.3687
v  130.785 15.8145 -68.3687
v  130.785 7.27116 -59.5104
v  130.785 15.8145 -59.5104
v  130.785 7.27116 -59.5104
v  130.785 15.8145 -68.3687
v  157.557 7.27116 -68.3687
v  130.785 7.27116 -59.5104
v  130.785 7.27116 -68.3687
v  130.785 7.27116 -59.5104
v  157.557 7.27116 -68.3687
v  157.557 7.27116 -59.5104
v  157.557 7.27116 -59.5104
v  157.557 7.27116 -68.3687
v  130.785 7.27116 -59.5104
v  130.785 7.27116 -68.3687
v  130.785 7.27116 -59.5104
v  157.557 7.27116 -68.3687
v  157.557 7.27116 -68.3687
v  157.557 15.8145 -59.5104
v  157.557 7.27116 -59.5104
v  157.557 15.8145 -59.5104
v  157.557 7.27116 -68.3687
v  157.557 15.8145 -68.3687
v  157.557 15.8145 -68.3687
v  157.557 7.27116 -68.3687
v  157.557 15.8145 -59.5104
v  157.557 7.27116 -59.5104
v  157.557 15.8145 -59.5104
v  157.557 7.27116 -68.3687
v  157.557 15.8145 -59.5104
v  130.785 15.8145 -68.3687
v  130.785 15.8145 -59.5104
v  130.785 15.8145 -68.3687
v  157.557 15.8145 -59.5104
v  157.557 15.8145 -68.3687
v  157.557 15.8145 -68.3687
v  157.557 15.8145 -59.5104
v  130.785 15.8145 -68.3687
v  130.785 15.8145 -59.5104
v  130.785 15.8145 -68.3687
v  157.557 15.8145 -59.5104
v  130.785 15.8145 -68.3687
v  157.557 7.27116 -68.3687
v  130.785 7.27116 -68.3687
v  157.557 7.27116 -68.3687
v  130.785 15.8145 -68.3687
v  157.557 15.8145 -68.3687
v  157.557 15.8145 -68.3687
v  130.785 15.8145 -68.3687
v  157.557 7.27116 -68.3687
v  130.785 7.27116 -68.3687
v  157.557 7.27116 -68.3687
v  130.785 15.8145 -68.3687
v  130.785 7.27116 -59.5104
v  130.785 15.8145 -59.5104
v  157.557 7.27116 -59.5104
v  130.785 7.27116 -59.5104
v  157.557 15.8145 -59.5104
v  157.557 7.27116 -59.5104
v  130.785 15.8145 -59.5104
v  157.557 15.8145 -59.5104
v  130.785 15.8145 -59.5104
v  130.785 15.8145 -68.3687
v  130.785 7.27116 -68.3687
v  130.785 15.8145 -68.3687
v  130.785 7.27116 -59.5104
v  130.785 7.27116 -68.3687
v  157.557 7.27116 -68.3687
v  130.785 7.27116 -68.3687
v  157.557 7.27116 -59.5104
v  157.557 7.27116 -68.3687
v  157.557 15.8145 -68.3687
v  157.557 7.27116 -68.3687
v  157.557 15.8145 -59.5104
v  157.557 15.8145 -68.3687
v  130.785 15.8145 -68.3687
v  157.557 15.8145 -68.3687
v  89.9129 8.54331 -54.2994
v  63.1412 0 -54.2994
v  89.9129 0 -54.2994
v  63.1412 0 -54.2994
v  89.9129 8.54331 -54.2994
v  63.1412 8.54331 -54.2994
v  63.1412 8.54331 -54.2994
v  89.9129 8.54331 -54.2994
v  63.1412 0 -54.2994
v  89.9129 0 -54.2994
v  63.1412 0 -54.2994
v  89.9129 8.54331 -54.2994
v  63.1412 8.54331 -63.1576
v  63.1412 0 -54.2994
v  63.1412 8.54331 -54.2994
v  63.1412 0 -54.2994
v  63.1412 8.54331 -63.1576
v  63.1412 0 -63.1576
v  63.1412 0 -63.1576
v  63.1412 8.54331 -63.1576
v  63.1412 0 -54.2994
v  63.1412 8.54331 -54.2994
v  63.1412 0 -54.2994
v  63.1412 8.54331 -63.1576
v  89.9129 0 -63.1576
v  63.1412 0 -54.2994
v  63.1412 0 -63.1576
v  63.1412 0 -54.2994
v  89.9129 0 -63.1576
v  89.9129 0 -54.2994
v  89.9129 0 -54.2994
v  89.9129 0 -63.1576
v  63.1412 0 -54.2994
v  63.1412 0 -63.1576
v  63.1412 0 -54.2994
v  89.9129 0 -63.1576
v  89.9129 0 -63.1576
v  89.9129 8.54331 -54.2994
v  89.9129 0 -54.2994
v  89.9129 8.54331 -54.2994
v  89.9129 0 -63.1576
v  89.9129 8.54331 -63.1576
v  89.9129 8.54331 -63.1576
v  89.9129 0 -63.1576
v  89.9129 8.54331 -54.2994
v  89.9129 0 -54.2994
v  89.9129 8.54331 -54.2994
v  89.9129 0 -63.1576
v  89.9129 8.54331 -54.2994
v  63.1412 8.54331 -63.1576
v  63.1412 8.54331 -54.2994
v  63.1412 8.54331 -63.1576
v  89.9129 8.54331 -54.2994
v  89.9129 8.54331 -63.1576
v  89.9129 8.54331 -63.1576
v  89.9129 8.54331 -54.2994
v  63.1412 8.54331 -63.1576
v  63.1412 8.54331 -54.2994
v  63.1412 8.54331 -63.1576
v  89.9129 8.54331 -54.2994
v  63.1412 8.54331 -63.1576
v  89.9129 0 -63.1576
v  63.1412 0 -63.1576
v  89.9129 0 -63.1576
v  63.1412 8.54331 -63.1576
v  89.9129 8.54331 -63.1576
v  89.9129 8.54331 -63.1576
v  63.1412 8.54331 -63.1576
v  89.9129 0 -63.1576
v  63.1412 0 -63.1576
v  89.9129 0 -63.1576
v  63.1412 8.54331 -63.1576
v  63.1412 0 -54.2994
v  63.1412 8.54331 -54.2994
v  89.9129 0 -54.2994
v  63.1412 0 -54.2994
v  89.9129 8.54331 -54.2994
v  89.9129 0 -54.2994
v  63.1412 8.54331 -54.2994
v  89.9129 8.54331 -54.2994
v  63.1412 8.54331 -54.2994
v  63.1412 8.54331 -63.1576
v  63.1412 0 -63.1576
v  63.1412 8.54331 -63.1576
v  63.1412 0 -54.2994
v  63.1412 0 -63.1576
v  89.9129 0 -63.1576
v  63.1412 0 -63.1576
v  89.9129 0 -54.2994
v  89.9129 0 -63.1576
v  89.9129 8.54331 -63.1576
v  89.9129 0 -63.1576
v  89.9129 8.54331 -54.2994
v  89.9129 8.54331 -63.1576
v  63.1412 8.54331 -63.1576
v  89.9129 8.54331 -63.1576

# 0 UV coordinates

# 1556 vertex normals
vn -7.56197e-16 -1 2.57212e-15
vn -7.56197e-16 -1 2.57212e-15
vn -7.56197e-16 -1 2.57212e-15
vn -7.56197e-16 -1 2.57212e-15
vn -7.56197e-16 -1 2.57212e-15
vn -7.56197e-16 -1 2.57212e-15
vn 7.56197e-16 1 -2.57212e-15
vn 7.56197e-16 1 -2.57212e-15
vn 7.56197e-16 1 -2.57212e-15
vn 7.56197e-16 1 -2.57212e-15
vn 7.56197e-16 1 -2.57212e-15
vn 7.56197e-16 1 -2.57212e-15
vn 0 0 0
vn 0 0 0
vn 0 0 0
vn 0 0 0
vn 0 0 0
vn 0 0 0
vn 0 0 0
vn 0 0 0
vn -1 0 0
vn -1 0 0
vn -1 0 0
vn -1 0 0
vn -1 0 0
vn -1 0 0
vn 1 -0 -0
vn 1 -0 -0
vn 1 -0 -0
vn 1 -0 -0
vn 1 -0 -0
vn 1 -0 -0
vn 0 -1 0
vn 0 -1 0
vn 0 -1 0
vn 0 -1 0
vn 0 -1 0
vn 0 -1 0
vn -0 1 -0
vn -0 1 -0
vn -0 1 -0
vn -0 1 -0
vn -0 1 -0
vn -0 1 -0
vn 0 0 1
vn 0 0 1
vn 0 0 1
vn 0 0 1
vn 0 0 1
vn 0 0 1
vn -0 -0 -1
vn -0 -0 -1
vn -0 -0 -1
vn -0 -0 -1
vn -0 -0 -1
vn -0 -0 -1
vn 0 1 0
vn 0 1 0
vn 0 1 0
vn 0 1 0
vn 0 1 0
vn 0 1 0
vn -0 -1 -0
vn -0 -1 -0
vn -0 -1 -0
vn -0 -1 -0
vn -0 -1 -0
vn -0 -1 -0
vn 0 0 -1
vn 0 0 -1
vn 0 0 -1
vn 0 0 -1
vn 0 0 -1
vn 0 0 -1
vn -0 -0 1
vn -0 -0 1
vn -0 -0 1
vn -0 -0 1
vn -0 -0 1
vn -0 -0 1
vn 1 0 0
vn 1 0 0
vn 1 0 0
vn 1 0 0
vn 1 0 0
vn 1 0 0
vn -1 -0 -0
vn -1 -0 -0
vn -1 -0 -0
vn -1 -0 -0
vn -1 -0 -0
vn -1 -0 -0
vn 0 0 0
vn 0 0 0
vn 0 0 0
vn 0 0 0
vn 0 0 0
vn 0 0 0
vn 0 0 0
vn 0 0 0
vn 0 0 0
vn 0 0 0
vn 0 0 0
vn 0 0 0
vn 0 0 0
vn 0 0 0
vn 0 0 0
vn 0 0 0
vn 0 0 0
vn 0 0 0
vn 0 0 0
vn 0 0 0
vn 0 0 0
vn 0 0 0
vn 0 0 0
vn 0 0 0
vn 0 0 1
vn 0 0 1
vn 0 0 1
vn 0 0 1
vn 0 0 1
vn 0 0 1
vn -0 -0 -1
vn -0 -0 -1
vn -0 -0 -1
vn -0 -0 -1
vn -0 -0 -1
vn -0 -0 -1
vn 0 -1 0
vn 0 -1 0
vn 0 -1 0
vn 0 -1 0
vn 0 -1 0
vn 0 -1 0
vn -0 1 -0
vn -0 1 -0
vn -0 1 -0
vn -0 1 -0
vn -0 1 -0
vn -0 1 -0
vn 1 0 0
vn 1 0 0
vn 1 0 0
vn 1 0 0
vn 1 0 0
vn 1 0 0
vn -1 -0 -0
vn -1 -0 -0
vn -1 -0 -0
vn -1 -0 -0
vn -1 -0 -0
vn -1 -0 -0
vn 0 1 0
vn 0 1 0
vn 0 1 0
vn 0 1 0
vn 0 1 0
vn 0 1 0
vn -0 -1 -0
vn -0 -1 -0
vn -0 -1 -0
vn -0 -1 -0
vn -0 -1 -0
vn -0 -1 -0
vn -1 -0 -0
vn -1 -0 -0
vn -1 -0 -0
vn -1 -0 -0
vn -1 -0 -0
vn -1 -0 -0
vn 1 0 0
vn 1 0 0
vn 1 0 0
vn 1 0 0
vn 1 0 0
vn 1 0 0
vn 0 0 -1
vn 0 0 -1
vn 0 0 -1
vn 0 0 -1
vn 0 0 -1
vn 0 0 -1
vn -0 -0 1
vn -0 -0 1
vn -0 -0 1
vn -0 -0 1
vn -0 -0 1
vn -0 -0 1
vn 0 0 0
vn 0 0 0
vn 0 0 0
vn 0 0 0
vn 0 0 0
vn 0 0 0
vn 0 0 0
vn 0 0 0
vn 0 0 0
vn 0 0 0
vn 0 0 0
vn 0 0 0
vn 0 0 0
vn 0 0 0
vn 0 0 0
vn 0 0 0
vn 0 0 0
vn 0 0 0
vn 0 0 0
vn 0 0 0
vn 0 0 0
vn 0 0 0
vn 0 0 0
vn 0 0 0
vn 0 1 0
vn 0 1 0
vn 0 1 0
vn 0 1 0
vn 0 1 0
vn 0 1 0
vn -0 -1 -0
vn -0 -1 -0
vn -0 -1 -0
vn -0 -1 -0
vn -0 -1 -0
vn -0 -1 -0
vn -1 -0 -0
vn -1 -0 -0
vn -1 -0 -0
vn -1 -0 -0
vn -1 -0 -0
vn -1 -0 -0
vn 1 0 0
vn 1 0 0
vn 1 0 0
vn 1 0 0
vn 1 0 0
vn 1 0 0
vn 0 0 1
vn 0 0 1
vn 0 0 1
vn 0 0 1
vn 0 0 1
vn 0 0 1
vn -0 -0 -1
vn -0 -0 -1
vn -0 -0 -1
vn -0 -0 -1
vn -0 -0 -1
vn -0 -0 -1
vn 1 0 0
vn 1 0 0
vn 1 0 0
vn 1 0 0
vn 1 0 0
vn 1 0 0
vn -1 -0 -0
vn -1 -0 -0
vn -1 -0 -0
vn -1 -0 -0
vn -1 -0 -0
vn -1 -0 -0
vn 0 0 -1
vn 0 0 -1
vn 0 0 -1
vn 0 0 -1
vn 0 0 -1
vn 0 0 -1
vn -0 -0 1
vn -0 -0 1
vn -0 -0 1
vn -0 -0 1
vn -0 -0 1
vn -0 -0 1
vn -0 -1 -0
vn -0 -1 -0
vn -0 -1 -0
vn -0 -1 -0
vn -0 -1 -0
vn -0 -1 -0
vn 0 1 0
vn 0 1 0
vn 0 1 0
vn 0 1 0
vn 0 1 0
vn 0 1 0
vn 0 0 0
vn 0 0 0
vn 0 0 0
vn 0 0 0
vn 0 0 0
vn 0 0 0
vn 0 0 0
vn 0 0 0
vn 0 0 0
vn 0 0 0
vn 0 0 0
vn 0 0 0
vn 0 0 0
vn 0 0 0
vn 0 0 0
vn 0 0 0
vn 0 0 0
vn 0 0 0
vn 0 0 0
vn 0 0 0
vn 0 0 0
vn 0 0 0
vn 0 0 0
vn 0 0 0
vn 1 0 0
vn 1 0 0
vn 1 0 0
vn 1 0 0
vn 1 0 0
vn 1 0 0
vn -1 -0 -0
vn -1 -0 -0
vn -1 -0 -0
vn -1 -0 -0
vn -1 -0 -0
vn -1 -0 -0
vn 0 0 -1
vn 0 0 -1
vn 0 0 -1
vn 0 0 -1
vn 0 0 -1
vn 0 0 -1
vn -0 -0 1
vn -0 -0 1
vn -0 -0 1
vn -0 -0 1
vn -0 -0 1
vn -0 -0 1
vn 0 1 0
vn 0 1 0
vn 0 1 0
vn 0 1 0
vn 0 1 0
vn 0 1 0
vn -0 -1 -0
vn -0 -1 -0
vn -0 -1 -0
vn -0 -1 -0
vn -0 -1 -0
vn -0 -1 -0
vn 0 0 1
vn 0 0 1
vn 0 0 1
vn 0 0 1
vn 0 0 1
vn 0 0 1
vn -0 -0 -1
vn -0 -0 -1
vn -0 -0 -1
vn -0 -0 -1
vn -0 -0 -1
vn -0 -0 -1
vn 0 -1 0
vn 0 -1 0
vn 0 -1 0
vn 0 -1 0
vn 0 -1 0
vn 0 -1 0
vn -0 1 -0
vn -0 1 -0
vn -0 1 -0
vn -0 1 -0
vn -0 1 -0
vn -0 1 -0
vn -1 -0 -0
vn -1 -0 -0
vn -1 -0 -0
vn -1 -0 -0
vn -1 -0 -0
vn -1 -0 -0
vn 1 0 0
vn 1 0 0
vn 1 0 0
vn 1 0 0
vn 1 0 0
vn 1 0 0
vn 0 0 0
vn 0 0 0
vn 0 0 0
vn 0 0 0
vn 0 0 0
vn 0 0 0
vn 0 0 0
vn 0 0 0
vn 0 0 0
vn 0 0 0
vn 0 0 0
vn 0 0 0
vn 0 0 0
vn 0 0 0
vn 0 0 0
vn 0 0 0
vn 0 0 0
vn 0 0 0
vn 0 0 0
vn 0 0 0
vn 0 0 0
vn 0 0 0
vn 0 0 0
vn 0 0 0
vn 1 0 0
vn 1 0 0
vn 1 0 0
vn 1 0 0
vn 1 0 0
vn 1 0 0
vn 0 1 0
vn 0 1 0
vn 0 1 0
vn 0 1 0
vn 0 1 0
vn 0 1 0
vn 0 0 1
vn 0 0 1
vn 0 0 1
vn 0 0 1
vn 0 0 1
vn 0 0 1
vn 0 -1 0
vn 0 -1 0
vn 0 -1 0
vn 0 -1 0
vn 0 -1 0
vn 0 -1 0
vn 0 0 -1
vn 0 0 -1
vn 0 0 -1
vn 0 0 -1
vn 0 0 -1
vn 0 0 -1
vn -1 -0 -0
vn -1 -0 -0
vn -1 -0 -0
vn -1 -0 -0
vn -1 -0 -0
vn -1 -0 -0
vn -1 -0 -0
vn -1 -0 -0
vn -1 -0 -0
vn -1 -0 -0
vn -1 -0 -0
vn -1 -0 -0
vn -0 -1 -0
vn -0 -1 -0
vn -0 -1 -0
vn -0 -1 -0
vn -0 -1 -0
vn -0 -1 -0
vn -0 -0 -1
vn -0 -0 -1
vn -0 -0 -1
vn -0 -0 -1
vn -0 -0 -1
vn -0 -0 -1
vn -0 1 -0
vn -0 1 -0
vn -0 1 -0
vn -0 1 -0
vn -0 1 -0
vn -0 1 -0
vn -0 -0 1
vn -0 -0 1
vn -0 -0 1
vn -0 -0 1
vn -0 -0 1
vn -0 -0 1
vn 1 0 0
vn 1 0 0
vn 1 0 0
vn 1 0 0
vn 1 0 0
vn 1 0 0
vn 0 0 0
vn 0 0 0
vn 0 0 0
vn 0 0 0
vn 0 0 0
vn 0 0 0
vn 0 0 0
vn 0 0 0
vn 0 0 0
vn 0 0 0
vn 0 0 0
vn 0 0 0
vn 0 0 0
vn 0 0 0
vn 0 0 0
vn 0 0 0
vn 0 0 0
vn 0 0 0
vn 0 0 0
vn 0 0 0
vn 0 0 0
vn 0 0 0
vn 0 0 0
vn 0 0 0
vn 1 0 0
vn 1 0 0
vn 1 0 0
vn 1 0 0
vn 1 0 0
vn 1 0 0
vn 0 1 0
vn 0 1 0
vn 0 1 0
vn 0 1 0
vn 0 1 0
vn 0 1 0
vn 0 0 1
vn 0 0 1
vn 0 0 1
vn 0 0 1
vn 0 0 1
vn 0 0 1
vn 0 -1 0
vn 0 -1 0
vn 0 -1 0
vn 0 -1 0
vn 0 -1 0
vn 0 -1 0
vn 0 0 -1
vn 0 0 -1
vn 0 0 -1
vn 0 0 -1
vn 0 0 -1
vn 0 0 -1
vn -1 -0 -0
vn -1 -0 -0
vn -1 -0 -0
vn -1 -0 -0
vn -1 -0 -0
vn -1 -0 -0
vn -1 -0 -0
vn -1 -0 -0
vn -1 -0 -0
vn -1 -0 -0
vn -1 -0 -0
vn -1 -0 -0
vn -0 -1 -0
vn -0 -1 -0
vn -0 -1 -0
vn -0 -1 -0
vn -0 -1 -0
vn -0 -1 -0
vn -0 -0 -1
vn -0 -0 -1
vn -0 -0 -1
vn -0 -0 -1
vn -0 -0 -1
vn -0 -0 -1
vn -0 1 -0
vn -0 1 -0
vn -0 1 -0
vn -0 1 -0
vn -0 1 -0
vn -0 1 -0
vn -0 -0 1
vn -0 -0 1
vn -0 -0 1
vn -0 -0 1
vn -0 -0 1
vn -0 -0 1
vn 1 0 0
vn 1 0 0
vn 1 0 0
vn 1 0 0
vn 1 0 0
vn 1 0 0
vn 0 0 0
vn 0 0 0
vn 0 0 0
vn 0 0 0
vn 0 0 0
vn 0 0 0
vn 0 0 0
vn 0 0 0
vn 0 0 0
vn 0 0 0
vn 0 0 0
vn 0 0 0
vn 0 0 0
vn 0 0 0
vn 0 0 0
vn 0 0 0
vn 0 0 0
vn 0 0 0
vn 0 0 0
vn 0 0 0
vn 0 0 0
vn 0 0 0
vn 0 0 0
vn 0 0 0
vn 1 0 0
vn 1 0 0
vn 1 0 0
vn 1 0 0
vn 1 0 0
vn 1 0 0
vn -1 -0 -0
vn -1 -0 -0
vn -1 -0 -0
vn -1 -0 -0
vn -1 -0 -0
vn -1 -0 -0
vn 0 -1 0
vn 0 -1 0
vn 0 -1 0
vn 0 -1 0
vn 0 -1 0
vn 0 -1 0
vn -0 1 -0
vn -0 1 -0
vn -0 1 -0
vn -0 1 -0
vn -0 1 -0
vn -0 1 -0
vn 0 0 -1
vn 0 0 -1
vn 0 0 -1
vn 0 0 -1
vn 0 0 -1
vn 0 0 -1
vn -0 -0 1
vn -0 -0 1
vn -0 -0 1
vn -0 -0 1
vn -0 -0 1
vn -0 -0 1
vn 0 1 0
vn 0 1 0
vn 0 1 0
vn 0 1 0
vn 0 1 0
vn 0 1 0
vn -0 -1 -0
vn -0 -1 -0
vn -0 -1 -0
vn -0 -1 -0
vn -0 -1 -0
vn -0 -1 -0
vn 0 0 1
vn 0 0 1
vn 0 0 1
vn 0 0 1
vn 0 0 1
vn 0 0 1
vn -0 -0 -1
vn -0 -0 -1
vn -0 -0 -1
vn -0 -0 -1
vn -0 -0 -1
vn -0 -0 -1
vn -1 -0 -0
vn -1 -0 -0
vn -1 -0 -0
vn -1 -0 -0
vn -1 -0 -0
vn -1 -0 -0
vn 1 0 0
vn 1 0 0
vn 1 0 0
vn 1 0 0
vn 1 0 0
vn 1 0 0
vn 0 0 0
vn 0 0 0
vn 0 0 0
vn 0 0 0
vn 0 0 0
vn 0 0 0
vn 0 0 0
vn 0 0 0
vn 0 0 0
vn 0 0 0
vn 0 0 0
vn 0 0 0
vn 0 0 0
vn 0 0 0
vn 0 0 0
vn 0 0 0
vn 0 0 0
vn 0 0 0
vn 0 0 0
vn 0 0 0
vn 0 0 0
vn 0 0 0
vn 0 0 0
vn 0 0 0
vn 1 0 0
vn 1 0 0
vn 1 0 0
vn 1 0 0
vn 1 0 0
vn 1 0 0
vn -1 -0 -0
vn -1 -0 -0
vn -1 -0 -0
vn -1 -0 -0
vn -1 -0 -0
vn -1 -0 -0
vn 0 -1 0
vn 0 -1 0
vn 0 -1 0
vn 0 -1 0
vn 0 -1 0
vn 0 -1 0
vn -0 1 -0
vn -0 1 -0
vn -0 1 -0
vn -0 1 -0
vn -0 1 -0
vn -0 1 -0
vn 0 0 -1
vn 0 0 -1
vn 0 0 -1
vn 0 0 -1
vn 0 0 -1
vn 0 0 -1
vn -0 -0 1
vn -0 -0 1
vn -0 -0 1
vn -0 -0 1
vn -0 -0 1
vn -0 -0 1
vn 0 1 0
vn 0 1 0
vn 0 1 0
vn 0 1 0
vn 0 1 0
vn 0 1 0
vn -0 -1 -0
vn -0 -1 -0
vn -0 -1 -0
vn -0 -1 -0
vn -0 -1 -0
vn -0 -1 -0
vn 0 0 1
vn 0 0 1
vn 0 0 1
vn 0 0 1
vn 0 0 1
vn 0 0 1
vn -0 -0 -1
vn -0 -0 -1
vn -0 -0 -1
vn -0 -0 -1
vn -0 -0 -1
vn -0 -0 -1
vn -1 -0 -0
vn -1 -0 -0
vn -1 -0 -0
vn -1 -0 -0
vn -1 -0 -0
vn -1 -0 -0
vn 1 0 0
vn 1 0 0
vn 1 0 0
vn 1 0 0
vn 1 0 0
vn 1 0 0
vn 0 0 0
vn 0 0 0
vn 0 0 0
vn 0 0 0
vn 0 0 0
vn 0 0 0
vn 0 0 0
vn 0 0 0
vn 0 0 0
vn 0 0 0
vn 0 0 0
vn 0 0 0
vn 0 0 0
vn 0 0 0
vn 0 0 0
vn 0 0 0
vn 0 0 0
vn 0 0 0
vn 0 0 0
vn 0 0 0
vn 0 0 0
vn 0 0 0
vn 0 0 0
vn 0 0 0
vn 0 -1 0
vn 0 -1 0
vn 0 -1 0
vn 0 -1 0
vn 0 -1 0
vn 0 -1 0
vn -0 1 -0
vn -0 1 -0
vn -0 1 -0
vn -0 1 -0
vn -0 1 -0
vn -0 1 -0
vn -1 -0 -0
vn -1 -0 -0
vn -1 -0 -0
vn -1 -0 -0
vn -1 -0 -0
vn -1 -0 -0
vn 1 0 0
vn 1 0 0
vn 1 0 0
vn 1 0 0
vn 1 0 0
vn 1 0 0
vn 0 0 -1
vn 0 0 -1
vn 0 0 -1
vn 0 0 -1
vn 0 0 -1
vn 0 0 -1
vn -0 -0 1
vn -0 -0 1
vn -0 -0 1
vn -0 -0 1
vn -0 -0 1
vn -0 -0 1
vn 1 0 0
vn 1 0 0
vn 1 0 0
vn 1 0 0
vn 1 0 0
vn 1 0 0
vn -1 -0 -0
vn -1 -0 -0
vn -1 -0 -0
vn -1 -0 -0
vn -1 -0 -0
vn -1 -0 -0
vn 0 0 1
vn 0 0 1
vn 0 0 1
vn 0 0 1
vn 0 0 1
vn 0 0 1
vn -0 -0 -1
vn -0 -0 -1
vn -0 -0 -1
vn -0 -0 -1
vn -0 -0 -1
vn -0 -0 -1
vn 0 1 0
vn 0 1 0
vn 0 1 0
vn 0 1 0
vn 0 1 0
vn 0 1 0
vn -0 -1 -0
vn -0 -1 -0
vn -0 -1 -0
vn -0 -1 -0
vn -0 -1 -0
vn -0 -1 -0
vn 0 0 0
vn 0 0 0
vn 0 0 0
vn 0 0 0
vn 0 0 0
vn 0 0 0
vn 0 0 0
vn 0 0 0
vn 0 0 0
vn 0 0 0
vn 0 0 0
vn 0 0 0
vn 0 0 0
vn 0 0 0
vn 0 0 0
vn 0 0 0
vn 0 0 0
vn 0 0 0
vn 0 0 0
vn 0 0 0
vn 0 0 0
vn 0 0 0
vn 0 0 0
vn 0 0 0
vn 0 -1 0
vn 0 -1 0
vn 0 -1 0
vn 0 -1 0
vn 0 -1 0
vn 0 -1 0
vn -0 1 -0
vn -0 1 -0
vn -0 1 -0
vn -0 1 -0
vn -0 1 -0
vn -0 1 -0
vn -1 -0 -0
vn -1 -0 -0
vn -1 -0 -0
vn -1 -0 -0
vn -1 -0 -0
vn -1 -0 -0
vn 1 0 0
vn 1 0 0
vn 1 0 0
vn 1 0 0
vn 1 0 0
vn 1 0 0
vn 0 0 -1
vn 0 0 -1
vn 0 0 -1
vn 0 0 -1
vn 0 0 -1
vn 0 0 -1
vn -0 -0 1
vn -0 -0 1
vn -0 -0 1
vn -0 -0 1
vn -0 -0 1
vn -0 -0 1
vn 1 0 0
vn 1 0 0
vn 1 0 0
vn 1 0 0
vn 1 0 0
vn 1 0 0
vn -1 -0 -0
vn -1 -0 -0
vn -1 -0 -0
vn -1 -0 -0
vn -1 -0 -0
vn -1 -0 -0
vn 0 0 1
vn 0 0 1
vn 0 0 1
vn 0 0 1
vn 0 0 1
vn 0 0 1
vn -0 -0 -1
vn -0 -0 -1
vn -0 -0 -1
vn -0 -0 -1
vn -0 -0 -1
vn -0 -0 -1
vn 0 1 0
vn 0 1 0
vn 0 1 0
vn 0 1 0
vn 0 1 0
vn 0 1 0
vn -0 -1 -0
vn -0 -1 -0
vn -0 -1 -0
vn -0 -1 -0
vn -0 -1 -0
vn -0 -1 -0
vn 0 0 0
vn 0 0 0
vn 0 0 0
vn 0 0 0
vn 0 0 0
vn 0 0 0
vn 0 0 0
vn 0 0 0
vn 0 0 0
vn 0 0 0
vn 0 0 0
vn 0 0 0
vn 0 0 0
vn 0 0 0
vn 0 0 0
vn 0 0 0
vn 0 0 0
vn 0 0 0
vn 0 0 0
vn 0 0 0
vn 0 0 0
vn 0 0 0
vn 0 0 0
vn 0 0 0
vn 0 -1 0
vn 0 -1 0
vn 0 -1 0
vn 0 -1 0
vn 0 -1 0
vn 0 -1 0
vn -0 1 -0
vn -0 1 -0
vn -0 1 -0
vn -0 1 -0
vn -0 1 -0
vn -0 1 -0
vn -1 -0 -0
vn -1 -0 -0
vn -1 -0 -0
vn -1 -0 -0
vn -1 -0 -0
vn -1 -0 -0
vn 1 0 0
vn 1 0 0
vn 1 0 0
vn 1 0 0
vn 1 0 0
vn 1 0 0
vn 0 0 -1
vn 0 0 -1
vn 0 0 -1
vn 0 0 -1
vn 0 0 -1
vn 0 0 -1
vn -0 -0 1
vn -0 -0 1
vn -0 -0 1
vn -0 -0 1
vn -0 -0 1
vn -0 -0 1
vn 1 0 0
vn 1 0 0
vn 1 0 0
vn 1 0 0
vn 1 0 0
vn 1 0 0
vn -1 -0 -0
vn -1 -0 -0
vn -1 -0 -0
vn -1 -0 -0
vn -1 -0 -0
vn -1 -0 -0
vn 0 0 1
vn 0 0 1
vn 0 0 1
vn 0 0 1
vn 0 0 1
vn 0 0 1
vn -0 -0 -1
vn -0 -0 -1
vn -0 -0 -1
vn -0 -0 -1
vn -0 -0 -1
vn -0 -0 -1
vn 0 1 0
vn 0 1 0
vn 0 1 0
vn 0 1 0
vn 0 1 0
vn 0 1 0
vn -0 -1 -0
vn -0 -1 -0
vn -0 -1 -0
vn -0 -1 -0
vn -0 -1 -0
vn -0 -1 -0
vn 0 0 0
vn 0 0 0
vn 0 0 0
vn 0 0 0
vn 0 0 0
vn 0 0 0
vn 0 0 0
vn 0 0 0
vn 0 0 0
vn 0 0 0
vn 0 0 0
vn 0 0 0
vn 0 0 0
vn 0 0 0
vn 0 0 0
vn 0 0 0
vn 0 0 0
vn 0 0 0
vn 0 0 0
vn 0 0 0
vn 0 0 0
vn 0 0 0
vn 0 0 0
vn 0 0 0
vn 0 -1 0
vn 0 -1 0
vn 0 -1 0
vn 0 -1 0
vn 0 -1 0
vn 0 -1 0
vn -0 1 -0
vn -0 1 -0
vn -0 1 -0
vn -0 1 -0
vn -0 1 -0
vn -0 1 -0
vn -1 -0 -0
vn -1 -0 -0
vn -1 -0 -0
vn -1 -0 -0
vn -1 -0 -0
vn -1 -0 -0
vn 1 0 0
vn 1 0 0
vn 1 0 0
vn 1 0 0
vn 1 0 0
vn 1 0 0
vn 0 0 -1
vn 0 0 -1
vn 0 0 -1
vn 0 0 -1
vn 0 0 -1
vn 0 0 -1
vn -0 -0 1
vn -0 -0 1
vn -0 -0 1
vn -0 -0 1
vn -0 -0 1
vn -0 -0 1
vn 1 0 0
vn 1 0 0
vn 1 0 0
vn 1 0 0
vn 1 0 0
vn 1 0 0
vn -1 -0 -0
vn -1 -0 -0
vn -1 -0 -0
vn -1 -0 -0
vn -1 -0 -0
vn -1 -0 -0
vn 0 0 1
vn 0 0 1
vn 0 0 1
vn 0 0 1
vn 0 0 1
vn 0 0 1
vn -0 -0 -1
vn -0 -0 -1
vn -0 -0 -1
vn -0 -0 -1
vn -0 -0 -1
vn -0 -0 -1
vn 0 1 0
vn 0 1 0
vn 0 1 0
vn 0 1 0
vn 0 1 0
vn 0 1 0
vn -0 -1 -0
vn -0 -1 -0
vn -0 -1 -0
vn -0 -1 -0
vn -0 -1 -0
vn -0 -1 -0
vn 0 0 0
vn 0 0 0
vn 0 0 0
vn 0 0 0
vn 0 0 0
vn 0 0 0
vn 0 0 0
vn 0 0 0
vn 0 0 0
vn 0 0 0
vn 0 0 0
vn 0 0 0
vn 0 0 0
vn 0 0 0
vn 0 0 0
vn 0 0 0
vn 0 0 0
vn 0 0 0
vn 0 0 0
vn 0 0 0
vn 0 0 0
vn 0 0 0
vn 0 0 0
vn 0 0 0
vn 0 -1 0
vn 0 -1 0
vn 0 -1 0
vn 0 -1 0
vn 0 -1 0
vn 0 -1 0
vn -0 1 -0
vn -0 1 -0
vn -0 1 -0
vn -0 1 -0
vn -0 1 -0
vn -0 1 -0
vn -1 -0 -0
vn -1 -0 -0
vn -1 -0 -0
vn -1 -0 -0
vn -1 -0 -0
vn -1 -0 -0
vn 1 0 0
vn 1 0 0
vn 1 0 0
vn 1 0 0
vn 1 0 0
vn 1 0 0
vn 0 0 -1
vn 0 0 -1
vn 0 0 -1
vn 0 0 -1
vn 0 0 -1
vn 0 0 -1
vn -0 -0 1
vn -0 -0 1
vn -0 -0 1
vn -0 -0 1
vn -0 -0 1
vn -0 -0 1
vn 1 0 0
vn 1 0 0
vn 1 0 0
vn 1 0 0
vn 1 0 0
vn 1 0 0
vn -1 -0 -0
vn -1 -0 -0
vn -1 -0 -0
vn -1 -0 -0
vn -1 -0 -0
vn -1 -0 -0
vn 0 0 1
vn 0 0 1
vn 0 0 1
vn 0 0 1
vn 0 0 1
vn 0 0 1
vn -0 -0 -1
vn -0 -0 -1
vn -0 -0 -1
vn -0 -0 -1
vn -0 -0 -1
vn -0 -0 -1
vn 0 1 0
vn 0 1 0
vn 0 1 0
vn 0 1 0
vn 0 1 0
vn 0 1 0
vn -0 -1 -0
vn -0 -1 -0
vn -0 -1 -0
vn -0 -1 -0
vn -0 -1 -0
vn -0 -1 -0
vn 0 0 0
vn 0 0 0
vn 0 0 0
vn 0 0 0
vn 0 0 0
vn 0 0 0
vn 0 0 0
vn 0 0 0
vn 0 0 0
vn 0 0 0
vn 0 0 0
vn 0 0 0
vn 0 0 0
vn 0 0 0
vn 0 0 0
vn 0 0 0
vn 0 0 0
vn 0 0 0
vn 0 0 0
vn 0 0 0
vn 0 0 0
vn 0 0 0
vn 0 0 0
vn 0 0 0
vn 0 -1 0
vn 0 -1 0
vn 0 -1 0
vn 0 -1 0
vn 0 -1 0
vn 0 -1 0
vn -0 1 -0
vn -0 1 -0
vn -0 1 -0
vn -0 1 -0
vn -0 1 -0
vn -0 1 -0
vn -1 -0 -0
vn -1 -0 -0
vn -1 -0 -0
vn -1 -0 -0
vn -1 -0 -0
vn -1 -0 -0
vn 1 0 0
vn 1 0 0
vn 1 0 0
vn 1 0 0
vn 1 0 0
vn 1 0 0
vn 0 0 -1
vn 0 0 -1
vn 0 0 -1
vn 0 0 -1
vn 0 0 -1
vn 0 0 -1
vn -0 -0 1
vn -0 -0 1
vn -0 -0 1
vn -0 -0 1
vn -0 -0 1
vn -0 -0 1
vn 1 0 0
vn 1 0 0
vn 1 0 0
vn 1 0 0
vn 1 0 0
vn 1 0 0
vn -1 -0 -0
vn -1 -0 -0
vn -1 -0 -0
vn -1 -0 -0
vn -1 -0 -0
vn -1 -0 -0
vn 0 0 1
vn 0 0 1
vn 0 0 1
vn 0 0 1
vn 0 0 1
vn 0 0 1
vn -0 -0 -1
vn -0 -0 -1
vn -0 -0 -1
vn -0 -0 -1
vn -0 -0 -1
vn -0 -0 -1
vn 0 1 0
vn 0 1 0
vn 0 1 0
vn 0 1 0
vn 0 1 0
vn 0 1 0
vn -0 -1 -0
vn -0 -1 -0
vn -0 -1 -0
vn -0 -1 -0
vn -0 -1 -0
vn -0 -1 -0
vn 0 0 0
vn 0 0 0
vn 0 0 0
vn 0 0 0
vn 0 0 0
vn 0 0 0
vn 0 0 0
vn 0 0 0
vn 0 0 0
vn 0 0 0
vn 0 0 0
vn 0 0 0
vn 0 0 0
vn 0 0 0
vn 0 0 0
vn 0 0 0
vn 0 0 0
vn 0 0 0
vn 0 0 0
vn 0 0 0
vn 0 0 0
vn 0 0 0
vn 0 0 0
vn 0 0 0
vn 0 -1 0
vn 0 -1 0
vn 0 -1 0
vn 0 -1 0
vn 0 -1 0
vn 0 -1 0
vn -0 1 -0
vn -0 1 -0
vn -0 1 -0
vn -0 1 -0
vn -0 1 -0
vn -0 1 -0
vn -1 -0 -0
vn -1 -0 -0
vn -1 -0 -0
vn -1 -0 -0
vn -1 -0 -0
vn -1 -0 -0
vn 1 0 0
vn 1 0 0
vn 1 0 0
vn 1 0 0
vn 1 0 0
vn 1 0 0
vn 0 0 -1
vn 0 0 -1
vn 0 0 -1
vn 0 0 -1
vn 0 0 -1
vn 0 0 -1
vn -0 -0 1
vn -0 -0 1
vn -0 -0 1
vn -0 -0 1
vn -0 -0 1
vn -0 -0 1
vn 1 0 0
vn 1 0 0
vn 1 0 0
vn 1 0 0
vn 1 0 0
vn 1 0 0
vn -1 -0 -0
vn -1 -0 -0
vn -1 -0 -0
vn -1 -0 -0
vn -1 -0 -0
vn -1 -0 -0
vn 0 0 1
vn 0 0 1
vn 0 0 1
vn 0 0 1
vn 0 0 1
vn 0 0 1
vn -0 -0 -1
vn -0 -0 -1
vn -0 -0 -1
vn -0 -0 -1
vn -0 -0 -1
vn -0 -0 -1
vn 0 1 0
vn 0 1 0
vn 0 1 0
vn 0 1 0
vn 0 1 0
vn 0 1 0
vn -0 -1 -0
vn -0 -1 -0
vn -0 -1 -0
vn -0 -1 -0
vn -0 -1 -0
vn -0 -1 -0
vn 0 0 0
vn 0 0 0
vn 0 0 0
vn 0 0 0
vn 0 0 0
vn 0 0 0
vn 0 0 0
vn 0 0 0
vn 0 0 0
vn 0 0 0
vn 0 0 0
vn 0 0 0
vn 0 0 0
vn 0 0 0
vn 0 0 0
vn 0 0 0
vn 0 0 0
vn 0 0 0
vn 0 0 0
vn 0 0 0
vn 0 0 0
vn 0 0 0
vn 0 0 0
vn 0 0 0
vn 0 -1 0
vn 0 -1 0
vn 0 -1 0
vn 0 -1 0
vn 0 -1 0
vn 0 -1 0
vn -0 1 -0
vn -0 1 -0
vn -0 1 -0
vn -0 1 -0
vn -0 1 -0
vn -0 1 -0
vn -1 -0 -0
vn -1 -0 -0
vn -1 -0 -0
vn -1 -0 -0
vn -1 -0 -0
vn -1 -0 -0
vn 1 0 0
vn 1 0 0
vn 1 0 0
vn 1 0 0
vn 1 0 0
vn 1 0 0
vn 0 0 -1
vn 0 0 -1
vn 0 0 -1
vn 0 0 -1
vn 0 0 -1
vn 0 0 -1
vn -0 -0 1
vn -0 -0 1
vn -0 -0 1
vn -0 -0 1
vn -0 -0 1
vn -0 -0 1
vn 1 0 0
vn 1 0 0
vn 1 0 0
vn 1 0 0
vn 1 0 0
vn 1 0 0
vn -1 -0 -0
vn -1 -0 -0
vn -1 -0 -0
vn -1 -0 -0
vn -1 -0 -0
vn -1 -0 -0
vn 0 0 1
vn 0 0 1
vn 0 0 1
vn 0 0 1
vn 0 0 1
vn 0 0 1
vn -0 -0 -1
vn -0 -0 -1
vn -0 -0 -1
vn -0 -0 -1
vn -0 -0 -1
vn -0 -0 -1
vn 0 1 0
vn 0 1 0
vn 0 1 0
vn 0 1 0
vn 0 1 0
vn 0 1 0
vn -0 -1 -0
vn -0 -1 -0
vn -0 -1 -0
vn -0 -1 -0
vn -0 -1 -0
vn -0 -1 -0
vn 0 0 0
vn 0 0 0
vn 0 0 0
vn 0 0 0
vn 0 0 0
vn 0 0 0
vn 0 0 0
vn 0 0 0
vn 0 0 0
vn 0 0 0
vn 0 0 0
vn 0 0 0
vn 0 0 0
vn 0 0 0
vn 0 0 0
vn 0 0 0
vn 0 0 0
vn 0 0 0
vn 0 0 0
vn 0 0 0
vn 0 0 0
vn 0 0 0
vn 0 0 0
vn 0 0 0

# Mesh 'SketchUp' with 2 faces
g SketchUp
usemtl ID116
f  1//1 2//2 3//3
f  4//4 5//5 6//6

# Mesh 'SketchUp' with 2 faces
g SketchUp
usemtl ID56
f  7//7 8//8 9//9
f  10//10 11//11 12//12

# Mesh 'SketchUp' with 4 faces
g SketchUp
usemtl ID57
l  13 14
l  15 16
l  17 18
l  19 20

# Mesh 'group_0' with 24 faces
g group_0
usemtl ID5
f  21//21 22//22 23//23
f  24//24 25//25 26//26
f  27//27 28//28 29//29
f  30//30 31//31 32//32
f  33//33 34//34 35//35
f  36//36 37//37 38//38
f  39//39 40//40 41//41
f  42//42 43//43 44//44
f  45//45 46//46 47//47
f  48//48 49//49 50//50
f  51//51 52//52 53//53
f  54//54 55//55 56//56
f  57//57 58//58 59//59
f  60//60 61//61 62//62
f  63//63 64//64 65//65
f  66//66 67//67 68//68
f  69//69 70//70 71//71
f  72//72 73//73 74//74
f  75//75 76//76 77//77
f  78//78 79//79 80//80
f  81//81 82//82 83//83
f  84//84 85//85 86//86
f  87//87 88//88 89//89
f  90//90 91//91 92//92

# Mesh 'group_0' with 12 faces
g group_0
usemtl ID11
l  93 94
l  95 96
l  97 98
l  99 100
l  101 102
l  103 104
l  105 106
l  107 108
l  109 110
l  111 112
l  113 114
l  115 116

# Mesh 'group_1' with 24 faces
g group_1
usemtl ID5
f  117//117 118//118 119//119
f  120//120 121//121 122//122
f  123//123 124//124 125//125
f  126//126 127//127 128//128
f  129//129 130//130 131//131
f  132//132 133//133 134//134
f  135//135 136//136 137//137
f  138//138 139//139 140//140
f  141//141 142//142 143//143
f  144//144 145//145 146//146
f  147//147 148//148 149//149
f  150//150 151//151 152//152
f  153//153 154//154 155//155
f  156//156 157//157 158//158
f  159//159 160//160 161//161
f  162//162 163//163 164//164
f  165//165 166//166 167//167
f  168//168 169//169 170//170
f  171//171 172//172 173//173
f  174//174 175//175 176//176
f  177//177 178//178 179//179
f  180//180 181//181 182//182
f  183//183 184//184 185//185
f  186//186 187//187 188//188

# Mesh 'group_1' with 12 faces
g group_1
usemtl ID11
l  189 190
l  191 192
l  193 194
l  195 196
l  197 198
l  199 200
l  201 202
l  203 204
l  205 206
l  207 208
l  209 210
l  211 212

# Mesh 'group_2' with 24 faces
g group_2
usemtl ID27
f  213//213 214//214 215//215
f  216//216 217//217 218//218
f  219//219 220//220 221//221
f  222//222 223//223 224//224
f  225//225 226//226 227//227
f  228//228 229//229 230//230
f  231//231 232//232 233//233
f  234//234 235//235 236//236
f  237//237 238//238 239//239
f  240//240 241//241 242//242
f  243//243 244//244 245//245
f  246//246 247//247 248//248
f  249//249 250//250 251//251
f  252//252 253//253 254//254
f  255//255 256//256 257//257
f  258//258 259//259 260//260
f  261//261 262//262 263//263
f  264//264 265//265 266//266
f  267//267 268//268 269//269
f  270//270 271//271 272//272
f  273//273 274//274 275//275
f  276//276 277//277 278//278
f  279//279 280//280 281//281
f  282//282 283//283 284//284

# Mesh 'group_2' with 12 faces
g group_2
usemtl ID33
l  285 286
l  287 288
l  289 290
l  291 292
l  293 294
l  295 296
l  297 298
l  299 300
l  301 302
l  303 304
l  305 306
l  307 308

# Mesh 'group_3' with 24 faces
g group_3
usemtl ID5
f  309//309 310//310 311//311
f  312//312 313//313 314//314
f  315//315 316//316 317//317
f  318//318 319//319 320//320
f  321//321 322//322 323//323
f  324//324 325//325 326//326
f  327//327 328//328 329//329
f  330//330 331//331 332//332
f  333//333 334//334 335//335
f  336//336 337//337 338//338
f  339//339 340//340 341//341
f  342//342 343//343 344//344
f  345//345 346//346 347//347
f  348//348 349//349 350//350
f  351//351 352//352 353//353
f  354//354 355//355 356//356
f  357//357 358//358 359//359
f  360//360 361//361 362//362
f  363//363 364//364 365//365
f  366//366 367//367 368//368
f  369//369 370//370 371//371
f  372//372 373//373 374//374
f  375//375 376//376 377//377
f  378//378 379//379 380//380

# Mesh 'group_3' with 12 faces
g group_3
usemtl ID11
l  381 382
l  383 384
l  385 386
l  387 388
l  389 390
l  391 392
l  393 394
l  395 396
l  397 398
l  399 400
l  401 402
l  403 404

# Mesh 'group_4' with 12 faces
g group_4
usemtl ID49
f  405//405 406//406 407//407
f  408//408 409//409 410//410
f  411//411 412//412 413//413
f  414//414 415//415 416//416
f  417//417 418//418 419//419
f  420//420 421//421 422//422
f  423//423 424//424 425//425
f  426//426 427//427 428//428
f  429//429 430//430 431//431
f  432//432 433//433 434//434
f  435//435 436//436 437//437
f  438//438 439//439 440//440

# Mesh 'group_4' with 12 faces
g group_4
usemtl ID56
f  441//441 442//442 443//443
f  444//444 445//445 446//446
f  447//447 448//448 449//449
f  450//450 451//451 452//452
f  453//453 454//454 455//455
f  456//456 457//457 458//458
f  459//459 460//460 461//461
f  462//462 463//463 464//464
f  465//465 466//466 467//467
f  468//468 469//469 470//470
f  471//471 472//472 473//473
f  474//474 475//475 476//476

# Mesh 'group_4' with 12 faces
g group_4
usemtl ID57
l  477 478
l  479 480
l  481 482
l  483 484
l  485 486
l  487 488
l  489 490
l  491 492
l  493 494
l  495 496
l  497 498
l  499 500

# Mesh 'group_5' with 12 faces
g group_5
usemtl ID49
f  501//501 502//502 503//503
f  504//504 505//505 506//506
f  507//507 508//508 509//509
f  510//510 511//511 512//512
f  513//513 514//514 515//515
f  516//516 517//517 518//518
f  519//519 520//520 521//521
f  522//522 523//523 524//524
f  525//525 526//526 527//527
f  528//528 529//529 530//530
f  531//531 532//532 533//533
f  534//534 535//535 536//536

# Mesh 'group_5' with 12 faces
g group_5
usemtl ID56
f  537//537 538//538 539//539
f  540//540 541//541 542//542
f  543//543 544//544 545//545
f  546//546 547//547 548//548
f  549//549 550//550 551//551
f  552//552 553//553 554//554
f  555//555 556//556 557//557
f  558//558 559//559 560//560
f  561//561 562//562 563//563
f  564//564 565//565 566//566
f  567//567 568//568 569//569
f  570//570 571//571 572//572

# Mesh 'group_5' with 12 faces
g group_5
usemtl ID57
l  573 574
l  575 576
l  577 578
l  579 580
l  581 582
l  583 584
l  585 586
l  587 588
l  589 590
l  591 592
l  593 594
l  595 596

# Mesh 'group_6' with 24 faces
g group_6
usemtl ID5
f  597//597 598//598 599//599
f  600//600 601//601 602//602
f  603//603 604//604 605//605
f  606//606 607//607 608//608
f  609//609 610//610 611//611
f  612//612 613//613 614//614
f  615//615 616//616 617//617
f  618//618 619//619 620//620
f  621//621 622//622 623//623
f  624//624 625//625 626//626
f  627//627 628//628 629//629
f  630//630 631//631 632//632
f  633//633 634//634 635//635
f  636//636 637//637 638//638
f  639//639 640//640 641//641
f  642//642 643//643 644//644
f  645//645 646//646 647//647
f  648//648 649//649 650//650
f  651//651 652//652 653//653
f  654//654 655//655 656//656
f  657//657 658//658 659//659
f  660//660 661//661 662//662
f  663//663 664//664 665//665
f  666//666 667//667 668//668

# Mesh 'group_6' with 12 faces
g group_6
usemtl ID11
l  669 670
l  671 672
l  673 674
l  675 676
l  677 678
l  679 680
l  681 682
l  683 684
l  685 686
l  687 688
l  689 690
l  691 692

# Mesh 'group_7' with 24 faces
g group_7
usemtl ID5
f  693//693 694//694 695//695
f  696//696 697//697 698//698
f  699//699 700//700 701//701
f  702//702 703//703 704//704
f  705//705 706//706 707//707
f  708//708 709//709 710//710
f  711//711 712//712 713//713
f  714//714 715//715 716//716
f  717//717 718//718 719//719
f  720//720 721//721 722//722
f  723//723 724//724 725//725
f  726//726 727//727 728//728
f  729//729 730//730 731//731
f  732//732 733//733 734//734
f  735//735 736//736 737//737
f  738//738 739//739 740//740
f  741//741 742//742 743//743
f  744//744 745//745 746//746
f  747//747 748//748 749//749
f  750//750 751//751 752//752
f  753//753 754//754 755//755
f  756//756 757//757 758//758
f  759//759 760//760 761//761
f  762//762 763//763 764//764

# Mesh 'group_7' with 12 faces
g group_7
usemtl ID11
l  765 766
l  767 768
l  769 770
l  771 772
l  773 774
l  775 776
l  777 778
l  779 780
l  781 782
l  783 784
l  785 786
l  787 788

# Mesh 'Componente_1' with 24 faces
g Componente_1
usemtl ID5
f  789//789 790//790 791//791
f  792//792 793//793 794//794
f  795//795 796//796 797//797
f  798//798 799//799 800//800
f  801//801 802//802 803//803
f  804//804 805//805 806//806
f  807//807 808//808 809//809
f  810//810 811//811 812//812
f  813//813 814//814 815//815
f  816//816 817//817 818//818
f  819//819 820//820 821//821
f  822//822 823//823 824//824
f  825//825 826//826 827//827
f  828//828 829//829 830//830
f  831//831 832//832 833//833
f  834//834 835//835 836//836
f  837//837 838//838 839//839
f  840//840 841//841 842//842
f  843//843 844//844 845//845
f  846//846 847//847 848//848
f  849//849 850//850 851//851
f  852//852 853//853 854//854
f  855//855 856//856 857//857
f  858//858 859//859 860//860

# Mesh 'Componente_1' with 12 faces
g Componente_1
usemtl ID11
l  861 862
l  863 864
l  865 866
l  867 868
l  869 870
l  871 872
l  873 874
l  875 876
l  877 878
l  879 880
l  881 882
l  883 884

# Mesh 'Componente_1' with 24 faces
g Componente_1
usemtl ID5
f  885//885 886//886 887//887
f  888//888 889//889 890//890
f  891//891 892//892 893//893
f  894//894 895//895 896//896
f  897//897 898//898 899//899
f  900//900 901//901 902//902
f  903//903 904//904 905//905
f  906//906 907//907 908//908
f  909//909 910//910 911//911
f  912//912 913//913 914//914
f  915//915 916//916 917//917
f  918//918 919//919 920//920
f  921//921 922//922 923//923
f  924//924 925//925 926//926
f  927//927 928//928 929//929
f  930//930 931//931 932//932
f  933//933 934//934 935//935
f  936//936 937//937 938//938
f  939//939 940//940 941//941
f  942//942 943//943 944//944
f  945//945 946//946 947//947
f  948//948 949//949 950//950
f  951//951 952//952 953//953
f  954//954 955//955 956//956

# Mesh 'Componente_1' with 12 faces
g Componente_1
usemtl ID11
l  957 958
l  959 960
l  961 962
l  963 964
l  965 966
l  967 968
l  969 970
l  971 972
l  973 974
l  975 976
l  977 978
l  979 980

# Mesh 'Componente_1' with 24 faces
g Componente_1
usemtl ID5
f  981//981 982//982 983//983
f  984//984 985//985 986//986
f  987//987 988//988 989//989
f  990//990 991//991 992//992
f  993//993 994//994 995//995
f  996//996 997//997 998//998
f  999//999 1000//1000 1001//1001
f  1002//1002 1003//1003 1004//1004
f  1005//1005 1006//1006 1007//1007
f  1008//1008 1009//1009 1010//1010
f  1011//1011 1012//1012 1013//1013
f  1014//1014 1015//1015 1016//1016
f  1017//1017 1018//1018 1019//1019
f  1020//1020 1021//1021 1022//1022
f  1023//1023 1024//1024 1025//1025
f  1026//1026 1027//1027 1028//1028
f  1029//1029 1030//1030 1031//1031
f  1032//1032 1033//1033 1034//1034
f  1035//1035 1036//1036 1037//1037
f  1038//1038 1039//1039 1040//1040
f  1041//1041 1042//1042 1043//1043
f  1044//1044 1045//1045 1046//1046
f  1047//1047 1048//1048 1049//1049
f  1050//1050 1051//1051 1052//1052

# Mesh 'Componente_1' with 12 faces
g Componente_1
usemtl ID11
l  1053 1054
l  1055 1056
l  1057 1058
l  1059 1060
l  1061 1062
l  1063 1064
l  1065 1066
l  1067 1068
l  1069 1070
l  1071 1072
l  1073 1074
l  1075 1076

# Mesh 'Componente_1' with 24 faces
g Componente_1
usemtl ID5
f  1077//1077 1078//1078 1079//1079
f  1080//1080 1081//1081 1082//1082
f  1083//1083 1084//1084 1085//1085
f  1086//1086 1087//1087 1088//1088
f  1089//1089 1090//1090 1091//1091
f  1092//1092 1093//1093 1094//1094
f  1095//1095 1096//1096 1097//1097
f  1098//1098 1099//1099 1100//1100
f  1101//1101 1102//1102 1103//1103
f  1104//1104 1105//1105 1106//1106
f  1107//1107 1108//1108 1109//1109
f  1110//1110 1111//1111 1112//1112
f  1113//1113 1114//1114 1115//1115
f  1116//1116 1117//1117 1118//1118
f  1119//1119 1120//1120 1121//1121
f  1122//1122 1123//1123 1124//1124
f  1125//1125 1126//1126 1127//1127
f  1128//1128 1129//1129 1130//1130
f  1131//1131 1132//1132 1133//1133
f  1134//1134 1135//1135 1136//1136
f  1137//1137 1138//1138 1139//1139
f  1140//1140 1141//1141 1142//1142
f  1143//1143 1144//1144 1145//1145
f  1146//1146 1147//1147 1148//1148

# Mesh 'Componente_1' with 12 faces
g Componente_1
usemtl ID11
l  1149 1150
l  1151 1152
l  1153 1154
l  1155 1156
l  1157 1158
l  1159 1160
l  1161 1162
l  1163 1164
l  1165 1166
l  1167 1168
l  1169 1170
l  1171 1172

# Mesh 'Componente_2' with 24 faces
g Componente_2
usemtl ID5
f  1173//1173 1174//1174 1175//1175
f  1176//1176 1177//1177 1178//1178
f  1179//1179 1180//1180 1181//1181
f  1182//1182 1183//1183 1184//1184
f  1185//1185 1186//1186 1187//1187
f  1188//1188 1189//1189 1190//1190
f  1191//1191 1192//1192 1193//1193
f  1194//1194 1195//1195 1196//1196
f  1197//1197 1198//1198 1199//1199
f  1200//1200 1201//1201 1202//1202
f  1203//1203 1204//1204 1205//1205
f  1206//1206 1207//1207 1208//1208
f  1209//1209 1210//1210 1211//1211
f  1212//1212 1213//1213 1214//1214
f  1215//1215 1216//1216 1217//1217
f  1218//1218 1219//1219 1220//1220
f  1221//1221 1222//1222 1223//1223
f  1224//1224 1225//1225 1226//1226
f  1227//1227 1228//1228 1229//1229
f  1230//1230 1231//1231 1232//1232
f  1233//1233 1234//1234 1235//1235
f  1236//1236 1237//1237 1238//1238
f  1239//1239 1240//1240 1241//1241
f  1242//1242 1243//1243 1244//1244

# Mesh 'Componente_2' with 12 faces
g Componente_2
usemtl ID11
l  1245 1246
l  1247 1248
l  1249 1250
l  1251 1252
l  1253 1254
l  1255 1256
l  1257 1258
l  1259 1260
l  1261 1262
l  1263 1264
l  1265 1266
l  1267 1268

# Mesh 'Componente_2' with 24 faces
g Componente_2
usemtl ID5
f  1269//1269 1270//1270 1271//1271
f  1272//1272 1273//1273 1274//1274
f  1275//1275 1276//1276 1277//1277
f  1278//1278 1279//1279 1280//1280
f  1281//1281 1282//1282 1283//1283
f  1284//1284 1285//1285 1286//1286
f  1287//1287 1288//1288 1289//1289
f  1290//1290 1291//1291 1292//1292
f  1293//1293 1294//1294 1295//1295
f  1296//1296 1297//1297 1298//1298
f  1299//1299 1300//1300 1301//1301
f  1302//1302 1303//1303 1304//1304
f  1305//1305 1306//1306 1307//1307
f  1308//1308 1309//1309 1310//1310
f  1311//1311 1312//1312 1313//1313
f  1314//1314 1315//1315 1316//1316
f  1317//1317 1318//1318 1319//1319
f  1320//1320 1321//1321 1322//1322
f  1323//1323 1324//1324 1325//1325
f  1326//1326 1327//1327 1328//1328
f  1329//1329 1330//1330 1331//1331
f  1332//1332 1333//1333 1334//1334
f  1335//1335 1336//1336 1337//1337
f  1338//1338 1339//1339 1340//1340

# Mesh 'Componente_2' with 12 faces
g Componente_2
usemtl ID11
l  1341 1342
l  1343 1344
l  1345 1346
l  1347 1348
l  1349 1350
l  1351 1352
l  1353 1354
l  1355 1356
l  1357 1358
l  1359 1360
l  1361 1362
l  1363 1364

# Mesh 'Componente_2' with 24 faces
g Componente_2
usemtl ID5
f  1365//1365 1366//1366 1367//1367
f  1368//1368 1369//1369 1370//1370
f  1371//1371 1372//1372 1373//1373
f  1374//1374 1375//1375 1376//1376
f  1377//1377 1378//1378 1379//1379
f  1380//1380 1381//1381 1382//1382
f  1383//1383 1384//1384 1385//1385
f  1386//1386 1387//1387 1388//1388
f  1389//1389 1390//1390 1391//1391
f  1392//1392 1393//1393 1394//1394
f  1395//1395 1396//1396 1397//1397
f  1398//1398 1399//1399 1400//1400
f  1401//1401 1402//1402 1403//1403
f  1404//1404 1405//1405 1406//1406
f  1407//1407 1408//1408 1409//1409
f  1410//1410 1411//1411 1412//1412
f  1413//1413 1414//1414 1415//1415
f  1416//1416 1417//1417 1418//1418
f  1419//1419 1420//1420 1421//1421
f  1422//1422 1423//1423 1424//1424
f  1425//1425 1426//1426 1427//1427
f  1428//1428 1429//1429 1430//1430
f  1431//1431 1432//1432 1433//1433
f  1434//1434 1435//1435 1436//1436

# Mesh 'Componente_2' with 12 faces
g Componente_2
usemtl ID11
l  1437 1438
l  1439 1440
l  1441 1442
l  1443 1444
l  1445 1446
l  1447 1448
l  1449 1450
l  1451 1452
l  1453 1454
l  1455 1456
l  1457 1458
l  1459 1460

# Mesh 'Componente_2' with 24 faces
g Componente_2
usemtl ID5
f  1461//1461 1462//1462 1463//1463
f  1464//1464 1465//1465 1466//1466
f  1467//1467 1468//1468 1469//1469
f  1470//1470 1471//1471 1472//1472
f  1473//1473 1474//1474 1475//1475
f  1476//1476 1477//1477 1478//1478
f  1479//1479 1480//1480 1481//1481
f  1482//1482 1483//1483 1484//1484
f  1485//1485 1486//1486 1487//1487
f  1488//1488 1489//1489 1490//1490
f  1491//1491 1492//1492 1493//1493
f  1494//1494 1495//1495 1496//1496
f  1497//1497 1498//1498 1499//1499
f  1500//1500 1501//1501 1502//1502
f  1503//1503 1504//1504 1505//1505
f  1506//1506 1507//1507 1508//1508
f  1509//1509 1510//1510 1511//1511
f  1512//1512 1513//1513 1514//1514
f  1515//1515 1516//1516 1517//1517
f  1518//1518 1519//1519 1520//1520
f  1521//1521 1522//1522 1523//1523
f  1524//1524 1525//1525 1526//1526
f  1527//1527 1528//1528 1529//1529
f  1530//1530 1531//1531 1532//1532

# Mesh 'Componente_2' with 12 faces
g Componente_2
usemtl ID11
l  1533 1534
l  1535 1536
l  1537 1538
l  1539 1540
l  1541 1542
l  1543 1544
l  1545 1546
l  1547 1548
l  1549 1550
l  1551 1552
l  1553 1554
l  1555 1556

